<?xml version="1.0" encoding="utf-8"?>
<!DOCTYPE svg PUBLIC "-//W3C//DTD SVG 1.1//EN" "http://www.w3.org/Graphics/SVG/1.1/DTD/svg11.dtd">
<!-- exported from Silhouette Studio® Business Edition V4.4.090ssbe -->
<svg version="1.1" xmlns="http://www.w3.org/2000/svg" xmlns:xlink="http://www.w3.org/1999/xlink" width="304.8mm" height="304.8mm" viewBox="0 0 304.8 304.8">
<defs/>
<path d="M -1.862671 -1.577316 L -1.862671 309.4134 L 309.1276 309.4134 L 309.1276 -1.577316 L -1.862671 -1.577316 Z" fill-rule="evenodd" fill="#000000" fill-opacity="1" stroke="#CFFF04" stroke-opacity="1" stroke-width="0.1" stroke-linecap="round" stroke-linejoin="round"/>
<g>
<path d="M 163.7236 54.58271 L 163.7468 54.58271" fill-rule="evenodd" fill="none" fill-opacity="1" stroke="#FFFFFF" stroke-opacity="1" stroke-width="0.1" stroke-linecap="round" stroke-linejoin="round"/>
<path d="M 36.16879 29.53761 L 47.43017 29.53761 L 47.43018 65.90128 L 36.1688 65.90128 L 36.16879 29.53761 Z" fill-rule="evenodd" fill="#CFFF04" fill-opacity="1" stroke="#EEFF01" stroke-opacity="1" stroke-width="0.1" stroke-linecap="round" stroke-linejoin="round"/>
<path d="M 93.92615 29.5377 L 105.6836 29.5377 L 113.8691 55.70663 L 121.9306 29.5377 L 133.3408 29.5377 L 119.847 65.90135 L 107.6679 65.90135 L 93.92615 29.5377 Z" fill-rule="evenodd" fill="#CFFF04" fill-opacity="1" stroke="#EEFF01" stroke-opacity="1" stroke-width="0.1" stroke-linecap="round" stroke-linejoin="round"/>
<path d="M 146.4313 47.74435 C 146.4313 41.80777 148.0849 37.18582 151.3922 33.87852 C 154.6995 30.57123 159.3049 28.91759 165.2084 28.91759 C 171.2607 28.91759 175.924 30.54229 179.1983 33.7917 C 182.4725 37.04111 184.1096 41.59277 184.1096 47.44667 C 184.1096 51.69654 183.3944 55.1816 181.964 57.90184 C 180.5336 60.62209 178.4665 62.73877 175.7628 64.25187 C 173.0591 65.76496 169.6898 66.52149 165.6549 66.52148 C 161.5538 66.52148 158.1597 65.86829 155.4726 64.56193 C 152.7854 63.25555 150.6067 61.18848 148.9365 58.36074 C 147.2663 55.533 146.4313 51.99421 146.4313 47.74435 Z M 157.6678 47.79396 C 157.6678 51.46506 158.3499 54.10262 159.7142 55.70663 C 161.0784 57.31067 162.9346 58.11269 165.2828 58.11269 C 167.6971 58.11269 169.5658 57.32721 170.8887 55.75624 C 172.2116 54.18528 172.8731 51.36582 172.8731 47.29787 C 172.8731 43.87482 172.1826 41.37368 170.8018 39.79444 C 169.4211 38.21521 167.5483 37.42559 165.1836 37.42559 C 162.9181 37.42559 161.0991 38.22761 159.7266 39.83165 C 158.354 41.43568 157.6678 44.08979 157.6678 47.79396 Z" fill-rule="evenodd" fill="#CFFF04" fill-opacity="1" stroke="#EEFF01" stroke-opacity="1" stroke-width="0.1" stroke-linecap="round" stroke-linejoin="round"/>
<path d="M 203.1532 29.5377 L 214.4146 29.5377 L 214.4146 65.90136 L 203.1532 65.90136 L 203.1532 29.5377 Z" fill-rule="evenodd" fill="#CFFF04" fill-opacity="1" stroke="#EEFF01" stroke-opacity="1" stroke-width="0.1" stroke-linecap="round" stroke-linejoin="round"/>
<path d="M 235.1696 29.5377 L 251.8632 29.5377 C 255.1539 29.5377 257.8122 29.98419 259.8379 30.87715 C 261.8636 31.77012 263.5379 33.05169 264.8608 34.72187 C 266.1838 36.39206 267.1429 38.33509 267.7382 40.55098 C 268.3335 42.76687 268.6312 45.11504 268.6312 47.5955 C 268.6312 51.48157 268.1888 54.49534 267.3041 56.63681 C 266.4194 58.77828 265.1916 60.57249 263.6206 62.01945 C 262.0497 63.46639 260.3629 64.42963 258.5605 64.90917 C 256.0965 65.57063 253.8641 65.90136 251.8632 65.90136 L 235.1696 65.90136 L 235.1696 29.5377 Z M 246.4062 37.77285 L 246.4062 57.6414 L 249.1595 57.6414 C 251.5077 57.6414 253.1779 57.38096 254.17 56.86008 C 255.1622 56.33918 255.9395 55.42967 256.5017 54.13156 C 257.0639 52.83345 257.345 50.72918 257.345 47.81875 C 257.345 43.96575 256.7166 41.32819 255.4599 39.90607 C 254.2031 38.48392 252.1195 37.77286 249.2091 37.77285 L 246.4062 37.77285 Z" fill-rule="evenodd" fill="#CFFF04" fill-opacity="1" stroke="#EEFF01" stroke-opacity="1" stroke-width="0.1" stroke-linecap="round" stroke-linejoin="round"/>
<path d="M 36.1688 239.1918 L 41.5018 239.1918 L 43.42416 259.3457 L 46.22709 239.1918 L 51.54765 239.1918 L 54.36298 259.3457 L 56.28539 239.1918 L 61.59354 239.1918 L 57.58763 275.2672 L 52.08094 275.2672 L 48.8936 252.554 L 45.7186 275.2672 L 40.21196 275.2672 L 36.1688 239.1918 Z" fill-rule="evenodd" fill="#CFFF04" fill-opacity="1" stroke="#EEFF01" stroke-opacity="1" stroke-width="0.1" stroke-linecap="round" stroke-linejoin="round"/>
<path d="M 79.10875 269.312 L 72.70915 269.312 L 71.8286 275.2672 L 66.0863 275.2672 L 72.91998 239.1919 L 79.04674 239.1919 L 85.88043 275.2672 L 80.00172 275.2672 L 79.10875 269.312 Z M 77.93053 261.5113 L 75.92134 248.5429 L 73.92458 261.5113 L 77.93053 261.5113 Z" fill-rule="evenodd" fill="#CFFF04" fill-opacity="1" stroke="#EEFF01" stroke-opacity="1" stroke-width="0.1" stroke-linecap="round" stroke-linejoin="round"/>
<path d="M 92.2334 275.2672 L 92.2334 239.1919 L 101.5972 239.1919 C 103.3335 239.1919 104.6605 239.4872 105.5783 240.0778 C 106.4961 240.6684 107.2361 241.7634 107.7983 243.3629 C 108.3606 244.9624 108.6417 246.9106 108.6417 249.2073 C 108.6417 251.2088 108.4267 252.9354 107.9968 254.3873 C 107.5668 255.8392 106.9756 257.0162 106.2232 257.9186 C 105.7437 258.4927 105.0863 258.9685 104.2513 259.3458 C 104.921 259.7887 105.4088 260.2317 105.7147 260.6746 C 105.9214 260.97 106.2212 261.6015 106.6139 262.5695 C 107.0067 263.5374 107.2692 264.2838 107.4015 264.8088 L 110.1176 275.2672 L 103.7676 275.2672 L 100.7662 264.2428 C 100.3859 262.8155 100.0469 261.8886 99.74925 261.4621 C 99.34412 260.9043 98.88522 260.6255 98.37256 260.6255 L 97.87646 260.6255 L 97.87648 275.2672 L 92.2334 275.2672 Z M 97.87646 253.809 L 100.2453 253.809 C 100.5017 253.809 100.9977 253.6449 101.7336 253.3168 C 102.1057 253.1692 102.4095 252.7918 102.6452 252.1849 C 102.8808 251.5779 102.9986 250.8806 102.9986 250.0932 C 102.9986 248.9284 102.8126 248.0343 102.4405 247.4109 C 102.0685 246.7875 101.3698 246.4759 100.3445 246.4759 L 97.87646 246.4759 L 97.87646 253.809 Z" fill-rule="evenodd" fill="#CFFF04" fill-opacity="1" stroke="#EEFF01" stroke-opacity="1" stroke-width="0.1" stroke-linecap="round" stroke-linejoin="round"/>
<path d="M 116.4706 275.2672 L 116.4706 239.1919 L 125.8343 239.1919 C 127.5707 239.1919 128.8978 239.4872 129.8155 240.0778 C 130.7333 240.6684 131.4733 241.7634 132.0355 243.3629 C 132.5978 244.9624 132.8789 246.9106 132.8789 249.2073 C 132.8789 251.2088 132.6639 252.9354 132.234 254.3873 C 131.804 255.8392 131.2128 257.0162 130.4604 257.9186 C 129.9809 258.4927 129.3236 258.9685 128.4884 259.3458 C 129.1582 259.7887 129.646 260.2317 129.952 260.6746 C 130.1586 260.97 130.4584 261.6015 130.8511 262.5695 C 131.2439 263.5374 131.5063 264.2838 131.6387 264.8088 L 134.3548 275.2672 L 128.0048 275.2672 L 125.0034 264.2428 C 124.6231 262.8155 124.2841 261.8886 123.9864 261.4621 C 123.5813 260.9043 123.1224 260.6255 122.6097 260.6255 L 122.1136 260.6255 L 122.1136 275.2672 L 116.4706 275.2672 Z M 122.1136 253.809 L 124.4825 253.809 C 124.7388 253.809 125.2349 253.6449 125.9708 253.3168 C 126.3429 253.1692 126.6467 252.7918 126.8823 252.1849 C 127.118 251.5779 127.2358 250.8806 127.2358 250.0932 C 127.2358 248.9284 127.0498 248.0343 126.6777 247.4109 C 126.3056 246.7875 125.607 246.4759 124.5817 246.4759 L 122.1136 246.4759 L 122.1136 253.809 Z" fill-rule="evenodd" fill="#CFFF04" fill-opacity="1" stroke="#EEFF01" stroke-opacity="1" stroke-width="0.1" stroke-linecap="round" stroke-linejoin="round"/>
<path d="M 151.8203 269.312 L 145.4207 269.312 L 144.5402 275.2672 L 138.7979 275.2672 L 145.6316 239.1919 L 151.7583 239.1919 L 158.592 275.2672 L 152.7133 275.2672 L 151.8203 269.312 Z M 150.6421 261.5113 L 148.633 248.5429 L 146.6361 261.5113 L 150.6421 261.5113 Z" fill-rule="evenodd" fill="#CFFF04" fill-opacity="1" stroke="#EEFF01" stroke-opacity="1" stroke-width="0.1" stroke-linecap="round" stroke-linejoin="round"/>
<path d="M 164.9078 239.1919 L 170.154 239.1919 L 177.0001 259.1489 L 177.0001 239.1919 L 182.2959 239.1919 L 182.2959 275.2672 L 177.0001 275.2672 L 170.1912 255.4577 L 170.1912 275.2672 L 164.9078 275.2672 L 164.9078 239.1919 Z" fill-rule="evenodd" fill="#CFFF04" fill-opacity="1" stroke="#EEFF01" stroke-opacity="1" stroke-width="0.1" stroke-linecap="round" stroke-linejoin="round"/>
<path d="M 189.2318 239.1919 L 206.3098 239.1919 L 206.3098 248.0999 L 200.58 248.0999 L 200.5799 275.2672 L 194.9617 275.2672 L 194.9617 248.0999 L 189.2318 248.0999 L 189.2318 239.1919 Z" fill-rule="evenodd" fill="#CFFF04" fill-opacity="1" stroke="#EEFF01" stroke-opacity="1" stroke-width="0.1" stroke-linecap="round" stroke-linejoin="round"/>
<path d="M 213.5558 239.1919 L 219.1865 239.1919 L 219.1865 275.2672 L 213.5558 275.2672 L 213.5558 239.1919 Z" fill-rule="evenodd" fill="#CFFF04" fill-opacity="1" stroke="#EEFF01" stroke-opacity="1" stroke-width="0.1" stroke-linecap="round" stroke-linejoin="round"/>
<path d="M 227.6852 239.1919 L 242.7416 239.1919 L 242.7416 246.8942 L 233.3158 246.8942 L 233.3158 252.6278 L 242.0595 252.6278 L 242.0595 259.9856 L 233.3158 259.9856 L 233.3158 267.0973 L 243.0145 267.0973 L 243.0145 275.2672 L 227.6852 275.2672 L 227.6852 239.1919 Z" fill-rule="evenodd" fill="#CFFF04" fill-opacity="1" stroke="#EEFF01" stroke-opacity="1" stroke-width="0.1" stroke-linecap="round" stroke-linejoin="round"/>
<path d="M 249.5411 263.3323 L 254.8865 262.6678 C 255.0023 264.3904 255.2379 265.7029 255.5934 266.6051 C 256.1722 268.0652 256.999 268.7953 258.0739 268.7953 C 258.8759 268.7953 259.4939 268.422 259.928 267.6756 C 260.3621 266.9291 260.5791 266.0638 260.5791 265.0794 C 260.5791 264.1443 260.3724 263.3076 259.959 262.5694 C 259.5456 261.8312 258.5865 261.1339 257.0817 260.4778 C 254.6177 259.3786 252.8608 257.9185 251.8107 256.0975 C 250.7524 254.2765 250.2232 251.9552 250.2232 249.1335 C 250.2232 247.2796 250.494 245.5284 251.0356 243.8796 C 251.5772 242.2309 252.3916 240.9349 253.4788 239.9916 C 254.5661 239.0483 256.0564 238.5766 257.9499 238.5766 C 260.2732 238.5766 262.0447 239.4338 263.2643 241.1482 C 264.4838 242.8625 265.2094 245.5899 265.4409 249.3303 L 260.1451 249.9455 C 260.0045 248.3214 259.7089 247.1402 259.2583 246.402 C 258.8077 245.6638 258.1855 245.2946 257.3918 245.2946 C 256.7386 245.2946 256.2466 245.5694 255.9159 246.119 C 255.5852 246.6686 255.4198 247.3371 255.4198 248.1245 C 255.4198 248.6987 255.5562 249.2155 255.8291 249.6748 C 256.0937 250.1506 256.722 250.5935 257.7142 251.0037 C 260.1699 252.0536 261.929 253.1158 262.9914 254.1904 C 264.0539 255.2649 264.827 256.5978 265.3107 258.1892 C 265.7943 259.7805 266.0362 261.5605 266.0361 263.5291 C 266.0361 265.8423 265.7137 267.975 265.0688 269.9272 C 264.4239 271.8795 263.5226 273.36 262.3651 274.369 C 261.2076 275.3779 259.7482 275.8824 257.9871 275.8824 C 254.8947 275.8824 252.7533 274.7012 251.5627 272.3388 C 250.3721 269.9764 249.6982 266.9742 249.5411 263.3323 Z" fill-rule="evenodd" fill="#CFFF04" fill-opacity="1" stroke="#EEFF01" stroke-opacity="1" stroke-width="0.1" stroke-linecap="round" stroke-linejoin="round"/>
<g>
<path d="M 143.3282 159.6002 C 142.0745 159.1667 141.1223 158.0884 140.7831 156.7181 C 140.7173 156.452 140.6375 155.549 140.6058 154.7115 L 140.5482 153.1889 L 139.6628 154.0212 C 138.4224 155.1874 137.8467 155.5188 136.9763 155.568 C 136.3649 155.6026 136.2188 155.5722 135.6519 155.293 C 134.8306 154.8884 133.6315 153.641 133.2057 152.7482 C 132.6636 151.6117 132.62 150.8642 132.9632 148.5868 C 133.0496 148.0131 133.093 147.3444 133.0597 147.1008 C 132.9716 146.4578 132.5136 145.6746 131.4958 144.4264 C 129.9483 142.5286 129.0731 141.3423 128.8383 140.824 C 128.5139 140.1084 128.3105 138.99 128.212 137.38 C 128.1509 136.3833 128.0802 135.9088 127.9667 135.7355 C 127.8789 135.6015 127.4337 135.2878 126.9774 135.0384 C 125.251 134.0949 123.7755 132.8669 122.5766 131.3757 C 121.5562 130.1064 119.6056 127.0785 118.994 125.8141 C 117.2561 122.222 116.1917 118.952 115.5503 115.2349 C 115.1974 113.1898 115.0974 111.9933 115.0974 109.8174 C 115.0974 102.6934 117.3353 97.24198 122.2116 92.48791 C 124.9656 89.80291 127.9628 87.91387 131.8543 86.41035 C 134.1632 85.51829 137.0134 84.85383 140.3982 84.4185 C 141.6167 84.26179 146.0452 84.24424 146.1968 84.39552 C 146.2755 84.47402 146.2318 84.71079 146.0398 85.24607 C 145.6336 86.3787 145.1189 87.59892 144.6505 88.53953 C 144.1279 89.589 143.6983 90.66163 143.6983 90.91709 C 143.6983 91.24871 144.166 91.37186 145.7009 91.44445 C 147.6441 91.53634 148.0411 91.75318 147.8664 92.62748 C 147.7869 93.02491 146.3871 95.9898 144.9394 98.82697 C 143.6714 101.3119 143.5163 101.7728 143.8539 102.0532 C 143.9577 102.1393 144.5178 102.2032 145.5345 102.245 C 146.8146 102.2975 147.1149 102.3402 147.404 102.5107 C 148.0531 102.8938 147.9918 103.0881 145.8245 107.5169 C 143.7696 111.7159 143.1174 113.1601 143.0284 113.7092 L 142.9721 114.0564 L 143.4188 114.0564 L 143.8655 114.0564 L 149.2751 108.7509 C 152.2503 105.8329 154.8887 103.1739 155.1381 102.8419 C 155.5438 102.3018 155.8098 101.626 155.6713 101.4874 C 155.643 101.4591 155.3122 101.3924 154.936 101.3391 C 154.5598 101.2858 154.0937 101.1646 153.9003 101.0699 C 153.6095 100.9275 153.544 100.837 153.5219 100.5475 C 153.4866 100.0834 153.8473 99.47781 154.9524 98.1459 C 156.2179 96.62051 159.1217 92.87482 159.4863 92.29743 C 159.8316 91.7505 159.9012 91.202 159.6381 91.10096 C 159.5497 91.06702 158.6609 91.01026 157.6631 90.97485 C 155.9178 90.91291 155.8401 90.90131 155.6237 90.67046 C 155.3192 90.34568 155.3355 89.88143 155.6737 89.24833 C 155.9951 88.64646 158.3018 85.67039 158.8988 85.08726 C 159.297 84.69831 159.326 84.68775 159.927 84.7138 C 161.0128 84.76087 163.0031 85.31051 165.099 86.1421 C 170.6438 88.34214 175.4555 92.07595 178.3263 96.40621 C 179.9775 98.89687 181.1246 101.5422 181.6842 104.1498 C 182.2817 106.9344 182.2443 111.2324 181.5935 114.5567 C 180.5401 119.938 177.9727 126.5661 175.5783 130.0857 C 174.9476 131.0129 174.4909 131.5423 173.6035 132.3749 C 172.9687 132.9705 172.2467 133.6026 171.9992 133.7794 C 171.7517 133.9562 171.1994 134.3913 170.7719 134.7462 C 170.3443 135.1011 169.7818 135.472 169.5218 135.5704 L 169.0491 135.7493 L 168.9748 136.7857 C 168.8291 138.816 168.6922 139.7144 168.3914 140.6142 C 168.0123 141.7488 167.4602 142.6416 166.3434 143.9261 C 164.7256 145.7867 164.1006 146.777 164.1012 147.4784 C 164.1013 147.6711 164.2181 148.1889 164.3607 148.6292 C 165.1385 151.0319 164.2425 153.4405 161.9988 154.9785 C 160.1203 156.2661 159.9716 156.2166 156.3781 153.1068 C 156.2182 152.9684 156.2114 153.0543 156.2679 154.5019 C 156.3324 156.1563 156.2598 156.7019 155.8503 157.6365 C 155.5847 158.2428 154.8051 158.975 153.9525 159.4189 C 153.4149 159.6989 153.2551 159.7336 152.4985 159.735 C 151.7539 159.7363 151.5916 159.7031 151.1901 159.4669 C 150.3909 158.9967 149.7583 158.1775 149.1806 156.8643 C 149.0039 156.4627 148.7604 155.9844 148.6395 155.8014 L 148.4197 155.4687 L 148.2086 156.1016 C 148.0926 156.4497 147.748 157.1887 147.4428 157.7437 C 146.8401 158.8396 146.3201 159.3463 145.5012 159.6355 C 144.9304 159.837 143.9679 159.8214 143.3282 159.6002 Z M 151.5268 141.1111 C 151.8138 140.9663 152.0793 140.7996 152.117 140.7406 C 152.1546 140.6816 152.3072 140.189 152.4561 139.6459 C 152.7831 138.4529 152.7555 137.8069 152.3048 136.102 C 151.888 134.5253 151.4163 133.6911 150.26 132.4856 C 149.3824 131.5707 148.6154 131.3132 147.6869 131.6218 C 146.8916 131.8861 145.7782 133.0387 145.2256 134.1696 C 144.529 135.5952 144.224 137.3435 144.401 138.8962 C 144.5173 139.9165 144.6512 140.3277 145.0209 140.799 C 145.3025 141.1581 145.341 141.1743 145.9141 141.1743 C 146.4871 141.1743 146.543 141.1508 147.2058 140.6318 C 148.3157 139.7628 148.5555 139.7826 149.4635 140.8185 C 149.9363 141.358 149.9618 141.3719 150.4768 141.3731 C 150.8505 141.374 151.1579 141.2973 151.5268 141.1111 Z M 134.2979 129.0658 C 138.8317 128.6814 143.2235 128.1495 144.2206 127.8641 C 144.5536 127.7688 144.6302 127.6789 144.9451 127.0151 C 146.1846 124.4014 146.7122 122.1543 146.2437 121.485 C 145.931 121.0382 144.5443 120.8424 139.3481 120.511 C 135.7295 120.2803 135.0062 120.1479 132.4718 119.2519 C 130.5647 118.5778 129.6593 118.3674 128.3448 118.2932 C 125.972 118.1592 124.392 118.8015 123.7036 120.1801 C 123.1309 121.3269 123.3027 122.347 124.3281 123.8865 C 125.7373 126.0024 128.3048 128.2973 130.0803 129.0281 C 130.7916 129.3208 131.2423 129.3249 134.2979 129.0658 Z M 165.1056 128.8662 C 166.8409 128.7219 167.7637 128.5764 168.3603 128.353 C 169.3524 127.9816 171.6777 125.7641 172.8251 124.0952 C 173.7815 122.704 174.1202 121.3684 173.7575 120.4181 C 173.253 119.0963 171.0949 118.1736 168.7577 118.2805 C 167.8527 118.322 167.5641 118.3891 165.949 118.9341 C 163.1715 119.8714 161.4141 120.1829 156.7987 120.5561 C 152.5933 120.8962 151.0996 121.0848 150.7235 121.3232 C 150.5211 121.4515 150.4985 121.5455 150.4985 122.2576 C 150.4985 123.516 150.907 125.1748 151.5182 126.3979 C 152.1758 127.714 153.1892 128.3945 154.7486 128.5673 C 155.2436 128.6221 156.0536 128.7174 156.5487 128.779 C 158.9042 129.0719 162.2252 129.1057 165.1056 128.8662 Z" fill-rule="evenodd" fill="#CFFF04" fill-opacity="1" stroke="#EEFF01" stroke-opacity="1" stroke-width="0.1" stroke-linecap="round" stroke-linejoin="round"/>
<path d="M 180.4755 221.3634 C 179.6507 222.3591 176.4901 219.6254 175.2429 218.3613 C 172.4306 215.5109 175.3065 218.4258 172.3797 215.4593 C 170.9473 214.0074 171.2139 214.0575 170.8988 214.0583 C 170.6564 214.0589 170.5888 214.4435 170.0102 213.9582 C 169.9968 213.947 170.0888 213.9034 169.3191 213.2578 C 168.5015 212.5719 167.2736 211.1417 166.456 210.4558 C 166.2963 210.3219 158.236 202.2242 158.1627 202.15 C 158.1263 202.1131 154.1512 197.9839 154.1148 197.947 C 152.1521 195.9576 154.2346 198.0684 152.0415 195.8456 C 151.8885 195.6905 150.0793 193.95 150.0669 193.7441 L 150.0669 193.644 C 150.0854 193.332 151.3766 192.0498 151.4162 192.0096 C 151.6199 191.8031 152.736 190.6261 152.8972 190.6086 L 152.9959 190.6086 C 153.0915 190.6087 154.9073 192.3458 155.6286 193.0769 C 156.4843 193.9442 157.34 194.8115 158.1956 195.6788 C 163.4836 201.0385 158.4154 195.8682 163.2966 200.8157 C 165.0307 202.5733 166.7421 204.308 168.4306 206.0194 C 169.2862 206.8866 170.1418 207.7539 170.9975 208.6212 C 171.2888 208.9164 173.3982 211.0971 173.3999 211.2897 C 173.4033 211.6642 172.777 211.5094 173.4658 212.2237 C 174.7996 213.6068 174.9335 213.7114 174.9467 213.7248 C 177.3168 216.127 176.2299 215.1255 177.1187 216.0264 C 178.3943 217.3193 181.2608 220.4155 180.4755 221.3634 Z" fill-rule="evenodd" fill="#CFFF04" fill-opacity="1" stroke="#EEFF01" stroke-opacity="1" stroke-width="0.1" stroke-linecap="round" stroke-linejoin="round"/>
<path d="M 144.5479 181.3117 C 145.9094 182.1459 147.0394 182.06 147.7185 182.0454 C 149.371 182.0101 150.079 180.8791 150.5747 181.8841 C 150.7387 182.2165 151.1139 181.7561 146.0493 187.1251 C 141.2617 192.2003 141.2487 192.0176 140.9214 191.8445 C 140.2722 191.5011 140.765 190.5134 140.7937 190.4443 C 141.2772 189.2767 141.0712 187.5101 140.8172 186.8362 C 140.3092 185.4883 138.2077 183.3126 138.1796 183.2852 C 137.3812 182.5073 132.3808 177.1753 132.2312 176.9993 C 132.0816 176.8233 126.7065 171.212 126.2827 170.7133 C 126.2328 170.6546 120.434 164.5447 120.3342 164.4273 C 119.5302 163.4814 117.3364 161.3145 117.3107 161.2854 C 116.7323 160.6301 117.4308 161.3042 116.3022 160.2047 C 116.2932 160.196 115.7384 159.4592 115.3922 159.1219 C 114.4753 158.2285 114.3941 158.1508 114.3858 158.1414 C 114.3792 158.1338 114.0089 157.5779 113.6771 157.2547 C 113.3745 156.9599 112.9913 156.5105 112.9705 156.4682 C 112.6315 155.7768 113.2749 156.4471 111.8447 154.4881 C 110.5481 152.7121 110.0747 152.2776 108.6303 151.6509 C 106.9997 150.9435 103.0729 150.5219 100.2439 154.5695 C 99.16743 156.1097 97.73233 159.6932 101.1213 163.5695 C 101.5623 164.074 106.7897 169.4845 107.269 169.9515 C 108.1083 170.7692 112.9795 175.8551 113.318 176.3354 C 115.9855 180.1199 114.7317 184.7617 112.3562 186.9782 C 109.5758 189.5725 108.0213 189.589 107.7444 189.649 C 106.1294 189.9987 105.154 189.6608 104.4877 189.5183 C 103.7284 189.356 102.0622 188.5548 102.0973 188.367 C 102.1155 188.2699 103.0877 187.5446 103.0991 187.5439 C 103.2061 187.5372 104.3468 188.3857 106.0083 188.3501 C 106.6875 188.3355 108.3732 188.5123 110.32 187.0552 C 111.7676 185.9716 114.2979 183.4014 113.2464 179.2097 C 112.9411 177.9924 112.5921 177.1002 108.2835 172.9026 C 108.2665 172.886 106.6295 171.0949 106.4678 170.9373 C 103.4214 167.9693 102.9728 167.3361 102.8404 167.207 C 101.2914 165.698 99.54068 163.8286 99.20888 163.2765 C 97.31354 160.1224 96.47621 156.5502 100.2672 152.5315 C 101.6198 151.0976 104.3586 148.9852 108.2384 150.1896 C 108.2731 150.2004 109.7495 150.525 111.8925 152.0487 C 114.7375 154.0714 112.9612 153.172 115.193 154.2828 C 116.2998 154.8336 127.7422 165.922 129.8704 167.7972 C 131.9322 169.6139 143.4925 180.6651 144.5479 181.3117 Z" fill-rule="evenodd" fill="#CFFF04" fill-opacity="1" stroke="#CFFF04" stroke-opacity="1" stroke-width="0.1" stroke-linecap="round" stroke-linejoin="round"/>
<path d="M 66.71558 216.2894 C 66.71558 216.8111 66.29183 217.2348 65.77017 217.2348 C 65.2485 217.2348 64.82477 216.8111 64.82477 216.2894 C 64.82477 215.7678 65.2485 215.344 65.77017 215.344 C 66.29183 215.344 66.71558 215.7678 66.71558 216.2894 Z" fill-rule="evenodd" fill="#CFFF04" fill-opacity="1" stroke="#CFFF04" stroke-opacity="1" stroke-width="0.8819444" stroke-linecap="round" stroke-linejoin="round"/>
<path d="M 66.87758 220.2126 C 68.82703 220.2126 70.41058 217.355 70.41058 213.837 L 70.41058 185.5822 C 70.41058 182.0643 68.82703 179.2066 66.87758 179.2066 L 41.88128 179.2066 C 39.93182 179.2066 38.34827 182.0643 38.34827 185.5822 L 38.34826 213.837 C 38.34826 217.355 39.93182 220.2126 41.88128 220.2126 L 66.87758 220.2126 Z" fill-rule="evenodd" fill="none" fill-opacity="1" stroke="#CFFF04" stroke-opacity="1" stroke-width="1.763889" stroke-linecap="round" stroke-linejoin="round"/>
<path d="M 63.35617 192.5089 C 64.75638 192.5089 65.89377 191.9027 65.89377 191.1565 L 65.89378 185.163 C 65.89378 184.4167 64.75638 183.8105 63.35617 183.8105 L 45.40255 183.8105 C 44.00235 183.8105 42.86496 184.4167 42.86496 185.163 L 42.86496 191.1565 C 42.86496 191.9027 44.00234 192.5089 45.40254 192.5089 L 63.35617 192.5089 Z" fill-rule="evenodd" fill="none" fill-opacity="1" stroke="#CFFF04" stroke-opacity="1" stroke-width="0.8819444" stroke-linecap="round" stroke-linejoin="round"/>
<path d="M 61.4892 204.1544 C 61.4892 208.0775 58.30248 211.2643 54.3794 211.2643 C 50.45633 211.2643 47.26961 208.0775 47.26961 204.1544 C 47.26961 200.2314 50.45633 197.0447 54.3794 197.0447 C 58.30248 197.0447 61.4892 200.2314 61.4892 204.1544 Z" fill-rule="evenodd" fill="none" fill-opacity="1" stroke="#CFFF04" stroke-opacity="1" stroke-width="0.8819444" stroke-linecap="round" stroke-linejoin="round"/>
<path d="M 52.60468 197.4142 C 53.94989 197.2114 55.31846 197.219 56.66133 197.4369 L 54.56056 210.3874 L 52.60468 197.4142 Z" fill-rule="evenodd" fill="#CFFF04" fill-opacity="1" stroke="#CFFF04" stroke-opacity="1" stroke-width="0.8819444" stroke-linecap="round" stroke-linejoin="round"/>
<path d="M 52.15123 215.1652 C 52.21177 215.0488 52.52357 214.9137 52.73181 214.9137 C 52.96505 214.9137 53.23497 215.1439 53.23497 215.3428 C 53.23497 215.6047 52.68549 215.8067 52.38795 215.6542 C 52.19725 215.5564 52.07698 215.308 52.15123 215.1652 Z M 53.56191 214.5553 C 53.64198 214.4896 53.72804 214.4358 53.75317 214.4358 C 53.82806 214.4358 54.09517 214.6637 54.20199 214.8188 C 54.25672 214.8982 54.32169 215.0426 54.34636 215.1396 C 54.4298 215.4679 54.26463 215.8416 53.92876 216.0846 C 53.84378 216.1461 53.75906 216.1964 53.74048 216.1964 C 53.7219 216.1964 53.63774 216.1385 53.55347 216.0677 C 53.41013 215.9473 53.40356 215.9353 53.45176 215.8814 C 53.71813 215.5838 53.71752 215.5849 53.73065 215.3847 C 53.74798 215.1203 53.72178 215.0429 53.55575 214.8681 C 53.4777 214.7859 53.41441 214.7088 53.4151 214.6967 C 53.41578 214.6846 53.48185 214.621 53.56191 214.5553 Z M 54.37677 213.9786 L 54.55265 213.8448 L 54.68433 213.9328 C 54.96748 214.1221 55.234 214.4296 55.38191 214.7376 C 55.49432 214.9717 55.52101 215.4621 55.43616 215.7342 C 55.32874 216.0786 55.00952 216.4838 54.66583 216.712 L 54.55216 216.7874 L 54.39441 216.6655 C 54.30764 216.5985 54.23665 216.5211 54.23665 216.4935 C 54.23665 216.466 54.30991 216.385 54.39944 216.3136 C 54.79391 215.999 55.01378 215.4905 54.92176 215.1055 C 54.84383 214.7794 54.65136 214.5098 54.29271 214.2244 C 54.24221 214.1842 54.20088 214.1425 54.20088 214.1318 C 54.20088 214.1211 54.28003 214.0522 54.37677 213.9786 Z M 55.20712 213.3915 C 55.28833 213.3295 55.36743 213.2789 55.3829 213.2789 C 55.42464 213.2789 55.85359 213.6477 55.99721 213.807 C 56.35225 214.201 56.46119 214.4032 56.57997 214.8885 C 56.64767 215.1652 56.64703 215.4083 56.57779 215.7125 C 56.44898 216.2783 56.13606 216.7235 55.53046 217.2024 L 55.38735 217.3156 L 55.22341 217.2035 C 55.13324 217.1418 55.05947 217.0758 55.05947 217.0568 C 55.05947 217.0265 55.28389 216.8106 55.35353 216.7738 C 55.42184 216.7378 55.74889 216.3201 55.84224 216.1497 C 56.13683 215.6118 56.13721 214.9959 55.84329 214.4593 C 55.69313 214.1852 55.42495 213.8825 55.12207 213.6454 C 55.02678 213.5708 55.04556 213.5147 55.20712 213.3915 Z" fill-rule="evenodd" fill="#CFFF04" fill-opacity="1" stroke="#CFFF04" stroke-opacity="1" stroke-width="0.1" stroke-linecap="round" stroke-linejoin="round"/>
<path d="M 89.77402 203.0363 C 89.75935 204.0147 89.87028 204.8112 90.02151 204.8135 L 91.23618 204.8317 C 91.38742 204.834 91.52219 204.0411 91.53685 203.0627 L 91.72495 190.5175 C 91.73961 189.539 91.62866 188.7424 91.47743 188.7402 L 90.26277 188.722 C 90.11153 188.7197 89.97676 189.5126 89.9621 190.491 L 89.77402 203.0363 Z" fill-rule="evenodd" fill="#CFFF04" fill-opacity="1" stroke="#CFFF04" stroke-opacity="1" stroke-width="0.8819444" stroke-linecap="round" stroke-linejoin="round"/>
<path d="M 94.81764 203.0363 C 94.80297 204.0147 94.91391 204.8112 95.06514 204.8135 L 96.27982 204.8317 C 96.43105 204.834 96.5658 204.0411 96.58046 203.0627 L 96.76857 190.5175 C 96.78323 189.539 96.67229 188.7424 96.52106 188.7402 L 95.3064 188.722 C 95.15516 188.7197 95.02038 189.5126 95.00571 190.491 L 94.81764 203.0363 Z" fill-rule="evenodd" fill="#CFFF04" fill-opacity="1" stroke="#CFFF04" stroke-opacity="1" stroke-width="0.8819444" stroke-linecap="round" stroke-linejoin="round"/>
<path d="M 90.8125 184.6023 L 90.8125 189.9579" fill-rule="evenodd" fill="none" fill-opacity="1" stroke="#CFFF04" stroke-opacity="1" stroke-width="0.8819444" stroke-linecap="round" stroke-linejoin="round"/>
<path d="M 95.85938 184.6023 L 95.85938 189.9579" fill-rule="evenodd" fill="none" fill-opacity="1" stroke="#CFFF04" stroke-opacity="1" stroke-width="0.8819444" stroke-linecap="round" stroke-linejoin="round"/>
<path d="M 66.71561 211.8265 C 66.71561 212.3482 66.29186 212.772 65.7702 212.772 C 65.24854 212.772 64.82478 212.3482 64.82478 211.8265 C 64.82478 211.3049 65.24854 210.8812 65.7702 210.8812 C 66.29186 210.8812 66.71561 211.3049 66.71561 211.8265 Z" fill-rule="evenodd" fill="#CFFF04" fill-opacity="1" stroke="#CFFF04" stroke-opacity="1" stroke-width="0.8819444" stroke-linecap="round" stroke-linejoin="round"/>
<path d="M 66.34291 211.9917 C 76.00555 212.4329 82.94742 212.036 87.16856 210.8012 C 90.76108 209.7503 90.63115 204.859 90.63115 204.859" fill-rule="evenodd" fill="none" fill-opacity="1" stroke="#CFFF04" stroke-opacity="1" stroke-width="0.8819444" stroke-linecap="round" stroke-linejoin="round"/>
<path d="M 66.52301 216.4361 C 78.0994 217.1576 86.41619 216.5086 91.47337 214.4893 C 95.7774 212.7706 95.62175 204.7716 95.62175 204.7716" fill-rule="evenodd" fill="none" fill-opacity="1" stroke="#CFFF04" stroke-opacity="1" stroke-width="0.8819444" stroke-linecap="round" stroke-linejoin="round"/>
<path d="M 261.5576 126.7346 C 265.1232 126.7346 268.0195 123.8382 268.0195 120.2726 L 268.0195 91.63536 C 268.0195 88.06976 265.1232 85.1734 261.5576 85.1734 L 215.8387 85.1734 C 212.2731 85.1734 209.3767 88.06976 209.3767 91.63536 L 209.3767 120.2726 C 209.3767 123.8382 212.273 126.7346 215.8387 126.7346 L 261.5576 126.7346 Z" fill-rule="evenodd" fill="none" fill-opacity="1" stroke="#CFFF04" stroke-opacity="1" stroke-width="1.763889" stroke-linecap="round" stroke-linejoin="round"/>
<g>
<path d="M 218.6929 115.7699 L 218.6929 117.4288 C 218.6929 117.6158 218.6274 117.7775 218.4965 117.9137 C 218.3656 118.0499 218.2066 118.1181 218.0197 118.1181 C 217.8326 118.1181 217.6737 118.0499 217.5428 117.9137 C 217.4119 117.7775 217.3464 117.6158 217.3464 117.4288 L 217.3464 115.7699 L 216.6572 115.7699 C 216.4702 115.7699 216.3112 115.7044 216.1804 115.5735 C 216.0495 115.4426 215.984 115.2837 215.984 115.0967 C 215.984 114.915 216.0495 114.7574 216.1804 114.6238 C 216.3112 114.4902 216.4702 114.4235 216.6572 114.4235 L 217.3304 114.4235 L 217.3304 112.8847 L 216.6572 112.8847 C 216.4702 112.8847 216.3112 112.8193 216.1804 112.6884 C 216.0495 112.5575 215.984 112.3985 215.984 112.2115 C 215.984 112.0192 216.0495 111.8589 216.1804 111.7306 C 216.3112 111.6024 216.4702 111.5383 216.6572 111.5383 L 217.3464 111.5383 L 217.3464 109.8793 C 217.3464 109.6923 217.4119 109.5334 217.5428 109.4025 C 217.6737 109.2716 217.8326 109.2061 218.0197 109.2061 C 218.2013 109.2061 218.3589 109.2729 218.4925 109.4065 C 218.6261 109.5401 218.6929 109.6977 218.6929 109.8793 L 218.6929 111.5383 L 220.0393 111.5383 L 220.0393 109.8793 C 220.0393 109.6923 220.106 109.5334 220.2396 109.4025 C 220.3732 109.2716 220.5308 109.2061 220.7125 109.2061 C 220.8995 109.2061 221.0611 109.2729 221.1973 109.4065 C 221.3336 109.5401 221.4017 109.6977 221.4017 109.8793 L 221.4017 111.5383 L 222.0909 111.5383 C 222.2726 111.5383 222.4302 111.6038 222.5638 111.7346 C 222.6974 111.8655 222.7641 112.0245 222.7641 112.2115 C 222.7641 112.4038 222.692 112.5668 222.5478 112.7004 C 222.4035 112.8339 222.2512 112.9007 222.0909 112.9007 L 221.4177 112.9007 L 221.4177 114.4235 L 222.0909 114.4235 C 222.2673 114.4235 222.4235 114.4902 222.5598 114.6238 C 222.696 114.7574 222.7641 114.915 222.7641 115.0967 C 222.7641 115.273 222.7014 115.4293 222.5758 115.5655 C 222.4503 115.7017 222.2886 115.7699 222.0909 115.7699 L 221.4017 115.7699 L 221.4017 117.4288 C 221.4017 117.6158 221.3336 117.7775 221.1973 117.9137 C 221.0611 118.0499 220.8995 118.1181 220.7125 118.1181 C 220.5308 118.1181 220.3732 118.0499 220.2396 117.9137 C 220.106 117.7775 220.0393 117.6158 220.0393 117.4288 L 220.0393 115.7699 L 218.6929 115.7699 Z M 218.6929 112.9007 L 218.6929 114.4235 L 220.0393 114.4235 L 220.0393 112.9007 L 218.6929 112.9007 Z" fill-rule="evenodd" fill="#CFFF04" fill-opacity="1" stroke="#CFFF04" stroke-opacity="1" stroke-width="0.1" stroke-linecap="round" stroke-linejoin="round"/>
<path d="M 231.3912 114.2632 L 231.3912 114.7841 C 231.3912 115.0566 231.2603 115.2703 230.9985 115.4252 L 225.693 118.5588 C 225.5381 118.655 225.3911 118.7031 225.2522 118.7031 C 225.0812 118.7031 224.9276 118.639 224.7914 118.5108 C 224.6551 118.3825 224.587 118.2196 224.587 118.0219 C 224.587 117.7654 224.6885 117.5784 224.8916 117.4609 L 229.8444 114.5196 L 224.8916 111.6024 C 224.6885 111.4742 224.587 111.2818 224.587 111.0254 C 224.587 110.8277 224.6551 110.6647 224.7914 110.5365 C 224.9276 110.4083 225.0813 110.3442 225.2522 110.3442 C 225.3858 110.3442 225.5327 110.3923 225.693 110.4884 L 230.9985 113.622 C 231.2603 113.777 231.3912 113.9907 231.3912 114.2632 Z" fill-rule="evenodd" fill="#CFFF04" fill-opacity="1" stroke="#CFFF04" stroke-opacity="1" stroke-width="0.1" stroke-linecap="round" stroke-linejoin="round"/>
</g>
<path d="M 89.30664 126.7945 C 92.87737 126.7945 95.77789 123.894 95.77789 120.3232 L 95.77789 91.64465 C 95.77789 88.07393 92.87735 85.17339 89.30661 85.17339 L 43.52205 85.17339 C 39.95131 85.17339 37.05078 88.07393 37.05078 91.64465 L 37.05078 120.3232 C 37.05078 123.894 39.9513 126.7945 43.52204 126.7945 L 89.30664 126.7945 Z" fill-rule="evenodd" fill="none" fill-opacity="1" stroke="#CFFF04" stroke-opacity="1" stroke-width="1.763889" stroke-linecap="round" stroke-linejoin="round"/>
<g>
<path d="M 44.83383 90.76066 L 44.83383 120.6779 L 64.3887 120.6779 L 64.3887 90.76066 L 44.83383 90.76066 Z" fill-rule="evenodd" fill="none" fill-opacity="1" stroke="#CFFF04" stroke-opacity="1" stroke-width="0.8819444" stroke-linecap="round" stroke-linejoin="round"/>
<path d="M 57.61974 90.76062 C 57.61974 91.55849 57.30276 92.32372 56.73859 92.8879 C 56.17439 93.4521 55.40918 93.76905 54.6113 93.76905 C 53.8134 93.76905 53.04819 93.4521 52.48401 92.8879 C 51.91982 92.32372 51.60286 91.55849 51.60286 90.76062 L 54.6113 90.76062 L 57.61974 90.76062 Z" fill-rule="evenodd" fill="#CFFF04" fill-opacity="1" stroke="#CFFF04" stroke-opacity="1" stroke-width="0.8819444" stroke-linecap="round" stroke-linejoin="round"/>
<path d="M 42.91595 91.88107 L 42.91595 96.56087 L 44.81331 96.56087 L 44.81331 91.88107 L 42.91595 91.88107 Z" fill-rule="evenodd" fill="none" fill-opacity="1" stroke="#CFFF04" stroke-opacity="1" stroke-width="0.8819444" stroke-linecap="round" stroke-linejoin="round"/>
<path d="M 42.9178 99.52849 L 42.91783 104.2083 L 44.81519 104.2083 L 44.81517 99.52849 L 42.9178 99.52849 Z" fill-rule="evenodd" fill="none" fill-opacity="1" stroke="#CFFF04" stroke-opacity="1" stroke-width="0.8819444" stroke-linecap="round" stroke-linejoin="round"/>
<path d="M 42.91977 107.1759 L 42.91977 111.8558 L 44.81712 111.8558 L 44.81712 107.1759 L 42.91977 107.1759 Z" fill-rule="evenodd" fill="none" fill-opacity="1" stroke="#CFFF04" stroke-opacity="1" stroke-width="0.8819444" stroke-linecap="round" stroke-linejoin="round"/>
<path d="M 42.91595 114.8234 L 42.91595 119.5032 L 44.81331 119.5032 L 44.81331 114.8234 L 42.91595 114.8234 Z" fill-rule="evenodd" fill="none" fill-opacity="1" stroke="#CFFF04" stroke-opacity="1" stroke-width="0.8819444" stroke-linecap="round" stroke-linejoin="round"/>
<path d="M 64.38014 91.9082 L 64.38014 96.58799 L 66.27751 96.58799 L 66.27751 91.9082 L 64.38014 91.9082 Z" fill-rule="evenodd" fill="none" fill-opacity="1" stroke="#CFFF04" stroke-opacity="1" stroke-width="0.8819444" stroke-linecap="round" stroke-linejoin="round"/>
<path d="M 64.38199 99.55563 L 64.382 104.2354 L 66.27934 104.2354 L 66.27934 99.55563 L 64.38199 99.55563 Z" fill-rule="evenodd" fill="none" fill-opacity="1" stroke="#CFFF04" stroke-opacity="1" stroke-width="0.8819444" stroke-linecap="round" stroke-linejoin="round"/>
<path d="M 64.38399 107.2031 L 64.38399 111.8829 L 66.28134 111.8829 L 66.28134 107.2031 L 64.38399 107.2031 Z" fill-rule="evenodd" fill="none" fill-opacity="1" stroke="#CFFF04" stroke-opacity="1" stroke-width="0.8819444" stroke-linecap="round" stroke-linejoin="round"/>
<path d="M 64.38013 114.8505 L 64.38013 119.5303 L 66.27751 119.5303 L 66.27751 114.8505 L 64.38013 114.8505 Z" fill-rule="evenodd" fill="none" fill-opacity="1" stroke="#CFFF04" stroke-opacity="1" stroke-width="0.8819444" stroke-linecap="round" stroke-linejoin="round"/>
</g>
<g>
<path d="M 70.37474 97.50056 L 70.37474 92.12321 C 70.37474 91.88778 70.46034 91.68447 70.63156 91.51325 C 70.80278 91.34203 71.0061 91.25642 71.24153 91.25643 L 74.04524 91.25643 C 74.2771 91.25643 74.47775 91.34203 74.64719 91.51325 C 74.81662 91.68447 74.90134 91.88778 74.90134 92.12321 L 74.90134 97.50056 C 74.90134 97.73955 74.81662 97.94376 74.64719 98.1132 C 74.47775 98.28264 74.27354 98.36735 74.03455 98.36734 L 71.24153 98.36734 C 70.99897 98.36734 70.79387 98.28263 70.62622 98.1132 C 70.45857 97.94376 70.37474 97.73956 70.37474 97.50056 Z M 74.01314 97.46845 L 74.01314 92.16602 L 71.27364 92.16602 L 71.27364 97.46845 L 74.01314 97.46845 Z" fill-rule="evenodd" fill="#CFFF04" fill-opacity="1" stroke="#CFFF04" stroke-opacity="1" stroke-width="0.1" stroke-linecap="round" stroke-linejoin="round"/>
<path d="M 76.3251 97.46851 L 77.70555 97.46851 L 77.70555 92.16608 L 76.3465 92.16608 C 76.22165 92.16608 76.11553 92.12237 76.02814 92.03497 C 75.94074 91.94759 75.89704 91.84146 75.89705 91.71661 C 75.89705 91.59177 75.94075 91.48565 76.02814 91.39825 C 76.11553 91.31086 76.22165 91.26717 76.3465 91.26717 L 78.60445 91.26717 L 78.60445 97.46851 L 79.50334 97.46851 L 79.50334 95.5958 C 79.50334 95.47452 79.54704 95.36929 79.63443 95.28011 C 79.72182 95.19093 79.82794 95.14635 79.95279 95.14636 C 80.07764 95.14636 80.18376 95.19006 80.27115 95.27744 C 80.35854 95.36483 80.40224 95.47095 80.40224 95.5958 L 80.40224 97.91795 C 80.40224 98.04279 80.35854 98.14893 80.27115 98.23633 C 80.18376 98.32372 80.07764 98.3674 79.95279 98.36739 L 76.3251 98.36739 C 76.20026 98.36739 76.09414 98.32192 76.00674 98.23096 C 75.91935 98.14001 75.87566 98.0321 75.87566 97.90726 C 75.87566 97.78597 75.91935 97.68252 76.00674 97.59691 C 76.09414 97.5113 76.20026 97.4685 76.3251 97.46851 Z" fill-rule="evenodd" fill="#CFFF04" fill-opacity="1" stroke="#CFFF04" stroke-opacity="1" stroke-width="0.1" stroke-linecap="round" stroke-linejoin="round"/>
<path d="M 80.96463 97.50056 L 80.96463 92.12321 C 80.96463 91.88778 81.05026 91.68447 81.22148 91.51325 C 81.3927 91.34203 81.596 91.25642 81.83142 91.25643 L 84.63515 91.25643 C 84.867 91.25643 85.06763 91.34203 85.23708 91.51325 C 85.40651 91.68447 85.49123 91.88778 85.49123 92.12321 L 85.49123 97.50056 C 85.49123 97.73955 85.40652 97.94376 85.23708 98.1132 C 85.06764 98.28264 84.86344 98.36735 84.62445 98.36734 L 81.83142 98.36734 C 81.58886 98.36734 81.38377 98.28263 81.21613 98.1132 C 81.04848 97.94376 80.96463 97.73956 80.96463 97.50056 Z M 84.60304 97.46845 L 84.60304 92.16602 L 81.86353 92.16602 L 81.86353 97.46845 L 84.60304 97.46845 Z" fill-rule="evenodd" fill="#CFFF04" fill-opacity="1" stroke="#CFFF04" stroke-opacity="1" stroke-width="0.1" stroke-linecap="round" stroke-linejoin="round"/>
<path d="M 86.69832 97.46848 L 88.07877 97.46848 L 88.07877 92.16605 L 86.71973 92.16605 C 86.59488 92.16605 86.48876 92.12234 86.40137 92.03494 C 86.31397 91.94756 86.27026 91.84143 86.27026 91.71658 C 86.27026 91.59174 86.31398 91.48562 86.40137 91.39822 C 86.48876 91.31083 86.59488 91.26714 86.71973 91.26714 L 88.97766 91.26714 L 88.97766 97.46848 L 89.87657 97.46848 L 89.87657 95.59576 C 89.87657 95.47448 89.92027 95.36926 90.00766 95.28008 C 90.09505 95.1909 90.20117 95.14632 90.32602 95.14632 C 90.45087 95.14632 90.55698 95.19003 90.64438 95.27741 C 90.73177 95.3648 90.77546 95.47092 90.77545 95.59576 L 90.77545 97.91792 C 90.77545 98.04276 90.73177 98.1489 90.64438 98.2363 C 90.55698 98.32368 90.45087 98.36737 90.32602 98.36736 L 86.69832 98.36736 C 86.57347 98.36736 86.46737 98.32189 86.37997 98.23093 C 86.29258 98.13998 86.24886 98.03207 86.24886 97.90723 C 86.24886 97.78594 86.29258 97.68249 86.37997 97.59688 C 86.46737 97.51127 86.57347 97.46847 86.69832 97.46848 Z" fill-rule="evenodd" fill="#CFFF04" fill-opacity="1" stroke="#CFFF04" stroke-opacity="1" stroke-width="0.1" stroke-linecap="round" stroke-linejoin="round"/>
<path d="M 70.81349 108.8063 L 72.19394 108.8063 L 72.19394 103.5039 L 70.83488 103.5039 C 70.71004 103.5039 70.60391 103.4602 70.51653 103.3728 C 70.42913 103.2854 70.38544 103.1793 70.38544 103.0545 C 70.38544 102.9296 70.42913 102.8235 70.51653 102.7361 C 70.60392 102.6487 70.71004 102.605 70.83488 102.605 L 73.09283 102.605 L 73.09283 108.8063 L 73.99173 108.8063 L 73.99173 106.9336 C 73.99173 106.8124 74.03543 106.7071 74.12282 106.618 C 74.21021 106.5288 74.31634 106.4842 74.44118 106.4842 C 74.56602 106.4842 74.67216 106.5279 74.75955 106.6153 C 74.84694 106.7027 74.89064 106.8088 74.89064 106.9336 L 74.89064 109.2558 C 74.89064 109.3806 74.84694 109.4868 74.75955 109.5742 C 74.67216 109.6616 74.56602 109.7053 74.44118 109.7053 L 70.81349 109.7053 C 70.68864 109.7053 70.58253 109.6598 70.49513 109.5688 C 70.40774 109.4778 70.36404 109.3699 70.36404 109.2451 C 70.36404 109.1238 70.40774 109.0204 70.49513 108.9347 C 70.58253 108.8491 70.68864 108.8063 70.81349 108.8063 Z" fill-rule="evenodd" fill="#CFFF04" fill-opacity="1" stroke="#CFFF04" stroke-opacity="1" stroke-width="0.1" stroke-linecap="round" stroke-linejoin="round"/>
<path d="M 75.66969 108.8385 L 75.66969 103.4611 C 75.66969 103.2257 75.75529 103.0224 75.92651 102.8512 C 76.09773 102.6799 76.30106 102.5943 76.53648 102.5943 L 79.34018 102.5943 C 79.57204 102.5943 79.77269 102.6799 79.94212 102.8512 C 80.11156 103.0224 80.19629 103.2257 80.19629 103.4611 L 80.19629 108.8385 C 80.19629 109.0775 80.11156 109.2817 79.94212 109.4511 C 79.77269 109.6206 79.56848 109.7053 79.3295 109.7053 L 76.53648 109.7053 C 76.29392 109.7053 76.08882 109.6206 75.92117 109.4511 C 75.75352 109.2817 75.66969 109.0775 75.66969 108.8385 Z M 79.30809 108.8064 L 79.30809 103.5039 L 76.56857 103.5039 L 76.56857 108.8064 L 79.30809 108.8064 Z" fill-rule="evenodd" fill="#CFFF04" fill-opacity="1" stroke="#CFFF04" stroke-opacity="1" stroke-width="0.1" stroke-linecap="round" stroke-linejoin="round"/>
<path d="M 80.96463 108.8385 L 80.96463 103.4611 C 80.96463 103.2257 81.05025 103.0224 81.22147 102.8512 C 81.39268 102.6799 81.596 102.5943 81.83142 102.5943 L 84.63513 102.5943 C 84.86699 102.5943 85.06763 102.6799 85.23708 102.8512 C 85.40651 103.0224 85.49123 103.2257 85.49123 103.4611 L 85.49123 108.8385 C 85.49123 109.0775 85.40652 109.2817 85.23708 109.4511 C 85.06764 109.6206 84.86343 109.7053 84.62444 109.7053 L 81.83142 109.7053 C 81.58886 109.7053 81.38376 109.6206 81.21611 109.4511 C 81.04846 109.2817 80.96463 109.0775 80.96463 108.8385 Z M 84.60303 108.8064 L 84.60303 103.5039 L 81.86353 103.5039 L 81.86353 108.8064 L 84.60303 108.8064 Z" fill-rule="evenodd" fill="#CFFF04" fill-opacity="1" stroke="#CFFF04" stroke-opacity="1" stroke-width="0.1" stroke-linecap="round" stroke-linejoin="round"/>
<path d="M 86.69826 108.8063 L 88.0787 108.8063 L 88.07872 103.5039 L 86.71967 103.5039 C 86.59482 103.5039 86.4887 103.4602 86.40131 103.3728 C 86.31391 103.2854 86.2702 103.1793 86.2702 103.0545 C 86.2702 102.9296 86.31392 102.8235 86.40131 102.7361 C 86.4887 102.6487 86.59482 102.605 86.71967 102.605 L 88.9776 102.605 L 88.9776 108.8063 L 89.87653 108.8063 L 89.87653 106.9336 C 89.87653 106.8124 89.92022 106.7071 90.00761 106.618 C 90.09501 106.5288 90.20111 106.4842 90.32596 106.4842 C 90.45081 106.4842 90.55692 106.5279 90.64432 106.6153 C 90.73171 106.7027 90.7754 106.8088 90.77539 106.9336 L 90.77539 109.2558 C 90.77539 109.3806 90.7317 109.4868 90.64432 109.5742 C 90.55692 109.6616 90.45081 109.7053 90.32596 109.7053 L 86.69826 109.7053 C 86.57341 109.7053 86.46729 109.6598 86.3799 109.5688 C 86.2925 109.4778 86.2488 109.3699 86.24879 109.2451 C 86.24879 109.1238 86.2925 109.0204 86.3799 108.9347 C 86.46729 108.8491 86.57341 108.8063 86.69826 108.8063 Z" fill-rule="evenodd" fill="#CFFF04" fill-opacity="1" stroke="#CFFF04" stroke-opacity="1" stroke-width="0.1" stroke-linecap="round" stroke-linejoin="round"/>
<path d="M 70.81349 120.1443 L 72.19394 120.1443 L 72.19394 114.8419 L 70.83488 114.8419 C 70.71004 114.8419 70.60391 114.7982 70.51653 114.7108 C 70.42913 114.6234 70.38544 114.5173 70.38544 114.3924 C 70.38544 114.2676 70.42913 114.1614 70.51653 114.0741 C 70.60392 113.9867 70.71004 113.943 70.83488 113.943 L 73.09283 113.943 L 73.09283 120.1443 L 73.99173 120.1443 L 73.99173 118.2716 C 73.99173 118.1503 74.03543 118.0451 74.12282 117.9559 C 74.21021 117.8667 74.31634 117.8222 74.44118 117.8222 C 74.56602 117.8222 74.67216 117.8658 74.75955 117.9532 C 74.84694 118.0406 74.89064 118.1467 74.89064 118.2716 L 74.89064 120.5937 C 74.89064 120.7186 74.84694 120.8247 74.75955 120.9121 C 74.67216 120.9995 74.56602 121.0432 74.44118 121.0432 L 70.81349 121.0432 C 70.68864 121.0432 70.58253 120.9977 70.49513 120.9068 C 70.40774 120.8158 70.36404 120.7079 70.36404 120.5831 C 70.36404 120.4618 70.40774 120.3583 70.49513 120.2727 C 70.58253 120.1871 70.68864 120.1443 70.81349 120.1443 Z" fill-rule="evenodd" fill="#CFFF04" fill-opacity="1" stroke="#CFFF04" stroke-opacity="1" stroke-width="0.1" stroke-linecap="round" stroke-linejoin="round"/>
<path d="M 75.66969 120.1763 L 75.66969 114.799 C 75.66969 114.5636 75.75529 114.3603 75.92651 114.189 C 76.09773 114.0178 76.30106 113.9322 76.53648 113.9322 L 79.34018 113.9322 C 79.57204 113.9322 79.77269 114.0178 79.94212 114.189 C 80.11156 114.3603 80.19629 114.5636 80.19629 114.799 L 80.19629 120.1763 C 80.19629 120.4153 80.11156 120.6196 79.94212 120.789 C 79.77269 120.9584 79.56848 121.0432 79.3295 121.0431 L 76.53648 121.0431 C 76.29392 121.0431 76.08882 120.9584 75.92117 120.789 C 75.75352 120.6196 75.66969 120.4154 75.66969 120.1763 Z M 79.30809 120.1443 L 79.30809 114.8418 L 76.56857 114.8418 L 76.56857 120.1443 L 79.30809 120.1443 Z" fill-rule="evenodd" fill="#CFFF04" fill-opacity="1" stroke="#CFFF04" stroke-opacity="1" stroke-width="0.1" stroke-linecap="round" stroke-linejoin="round"/>
<path d="M 81.40338 120.1443 L 82.78384 120.1443 L 82.78384 114.8419 L 81.42477 114.8419 C 81.29993 114.8419 81.19381 114.7982 81.10641 114.7108 C 81.01902 114.6234 80.97533 114.5173 80.97534 114.3924 C 80.97534 114.2676 81.01903 114.1614 81.10641 114.074 C 81.19381 113.9866 81.29993 113.943 81.42477 113.943 L 83.68274 113.943 L 83.68274 120.1443 L 84.58163 120.1443 L 84.58163 118.2716 C 84.58163 118.1503 84.62533 118.0451 84.71272 117.9559 C 84.80011 117.8667 84.90623 117.8221 85.03108 117.8221 C 85.15593 117.8221 85.26205 117.8658 85.34944 117.9532 C 85.43684 118.0406 85.48054 118.1467 85.48053 118.2716 L 85.48053 120.5937 C 85.48053 120.7186 85.43683 120.8247 85.34944 120.9121 C 85.26205 120.9995 85.15593 121.0432 85.03108 121.0432 L 81.40338 121.0432 C 81.27853 121.0432 81.17242 120.9977 81.08502 120.9068 C 80.99763 120.8158 80.95393 120.7079 80.95393 120.583 C 80.95393 120.4618 80.99763 120.3583 81.08502 120.2727 C 81.17242 120.1871 81.27853 120.1443 81.40338 120.1443 Z" fill-rule="evenodd" fill="#CFFF04" fill-opacity="1" stroke="#CFFF04" stroke-opacity="1" stroke-width="0.1" stroke-linecap="round" stroke-linejoin="round"/>
<path d="M 86.25957 120.1763 L 86.25957 114.799 C 86.25957 114.5636 86.34518 114.3603 86.5164 114.189 C 86.68762 114.0178 86.89094 113.9322 87.12636 113.9322 L 89.93005 113.9322 C 90.16192 113.9322 90.36256 114.0178 90.532 114.189 C 90.70143 114.3603 90.78615 114.5636 90.78615 114.799 L 90.78615 120.1763 C 90.78615 120.4153 90.70143 120.6196 90.532 120.789 C 90.36256 120.9584 90.15836 121.0432 89.91937 121.0431 L 87.12636 121.0431 C 86.8838 121.0431 86.6787 120.9584 86.51105 120.789 C 86.3434 120.6196 86.25957 120.4154 86.25957 120.1763 Z M 89.89798 120.1443 L 89.89798 114.8418 L 87.15846 114.8418 L 87.15846 120.1443 L 89.89798 120.1443 Z" fill-rule="evenodd" fill="#CFFF04" fill-opacity="1" stroke="#CFFF04" stroke-opacity="1" stroke-width="0.1" stroke-linecap="round" stroke-linejoin="round"/>
</g>
<path d="M 261.2782 220.8093 C 264.8445 220.8093 267.7414 217.9124 267.7414 214.3461 L 267.7414 185.7033 C 267.7414 182.137 264.8445 179.2401 261.2782 179.2401 L 215.5507 179.2401 C 211.9844 179.2401 209.0875 182.137 209.0875 185.7033 L 209.0875 214.3461 C 209.0875 217.9124 211.9844 220.8093 215.5507 220.8093 L 261.2782 220.8093 Z" fill-rule="evenodd" fill="none" fill-opacity="1" stroke="#CFFF04" stroke-opacity="1" stroke-width="1.763889" stroke-linecap="round" stroke-linejoin="round"/>
<path d="M 247.8181 214.2805 C 249.9903 214.2805 251.7548 212.2935 251.7548 209.8475 L 251.7548 190.202 C 251.7548 187.7559 249.9903 185.769 247.8181 185.769 L 219.9656 185.769 C 217.7934 185.769 216.0289 187.7559 216.0289 190.202 L 216.0289 209.8475 C 216.0289 212.2935 217.7934 214.2805 219.9656 214.2805 L 247.8181 214.2805 Z" fill-rule="evenodd" fill="none" fill-opacity="1" stroke="#CFFF04" stroke-opacity="1" stroke-width="1.763889" stroke-linecap="round" stroke-linejoin="round"/>
<g>
<path d="M 264.4371 193.5693 C 264.4371 195.8473 262.5867 197.6978 260.3087 197.6978 C 258.0306 197.6978 256.1801 195.8473 256.1801 193.5693 C 256.1801 191.2913 258.0306 189.4408 260.3087 189.4408 C 262.5867 189.4408 264.4371 191.2913 264.4371 193.5693 Z" fill-rule="evenodd" fill="none" fill-opacity="1" stroke="#CFFF04" stroke-opacity="1" stroke-width="1.763889" stroke-linecap="round" stroke-linejoin="round"/>
<path d="M 264.4371 206.4802 C 264.4371 208.7582 262.5866 210.6087 260.3086 210.6087 C 258.0306 210.6087 256.1801 208.7582 256.1801 206.4802 C 256.1801 204.2022 258.0306 202.3517 260.3086 202.3517 C 262.5866 202.3517 264.4371 204.2022 264.4371 206.4802 Z" fill-rule="evenodd" fill="none" fill-opacity="1" stroke="#CFFF04" stroke-opacity="1" stroke-width="1.763889" stroke-linecap="round" stroke-linejoin="round"/>
</g>
<path d="M 235.7668 204.178 L 235.7668 195.8714 L 241.9298 195.8714 L 241.9297 204.1015 M 248.0845 195.8714 L 248.0845 204.178 L 241.9215 204.1781 L 241.9216 195.948 M 222.2303 204.1781 L 222.2304 195.8715 L 225.6304 195.8715 L 225.6304 204.1015 M 229.0259 195.8714 L 229.0259 204.178 L 225.6258 204.1781 L 225.6259 195.948 M 215.4589 204.1781 L 215.4589 195.8715 L 218.859 195.8715 L 218.8589 204.1015 M 222.2545 195.8714 L 222.2544 204.178 L 218.8544 204.1781 L 218.8544 195.948 M 229.0017 204.178 L 229.0018 195.8714 L 232.4018 195.8714 L 232.4018 204.1014 M 235.7973 195.8713 L 235.7973 204.1779 L 232.3973 204.1779 L 232.3973 195.9479 M 248.054 204.1781 L 248.0541 195.8715 L 251.4541 195.8715 L 251.4541 204.1015" fill-rule="evenodd" fill="none" fill-opacity="1" stroke="#CFFF04" stroke-opacity="1" stroke-width="0.8819444" stroke-linecap="round" stroke-linejoin="round"/>
<path d="M 160.5169 180.5016 L 158.0394 178.1273 C 157.9428 178.0346 157.8172 177.9889 157.6628 177.99 C 157.5084 177.9911 157.3831 178.0403 157.2871 178.1376 L 156.4964 178.939 C 156.3799 179.0571 156.3172 179.1642 156.3082 179.2604 C 156.2992 179.3564 156.3207 179.4849 156.3727 179.6455 C 156.4247 179.8062 156.4006 179.9372 156.3005 180.0387 C 156.2207 180.1194 156.1317 180.16 156.0333 180.1603 C 155.9348 180.1606 155.852 180.1287 155.7847 180.0642 C 155.6502 179.9353 155.5776 179.7014 155.5665 179.3624 C 155.5555 179.0235 155.6634 178.739 155.8902 178.5092 L 156.7699 177.6177 C 156.9968 177.3878 157.291 177.271 157.6526 177.267 C 158.0143 177.263 158.3211 177.382 158.5733 177.6236 L 161.0633 180.01 C 161.2608 180.1993 161.3618 180.4451 161.366 180.7474 C 161.3703 181.0496 161.2702 181.3044 161.0659 181.5114 C 160.8513 181.7289 160.6062 181.8405 160.3306 181.8463 C 160.3344 182.1158 160.23 182.3584 160.0175 182.5737 C 159.7989 182.7953 159.5357 182.9066 159.2279 182.9079 C 158.9201 182.9091 158.6696 182.817 158.4763 182.6317 L 157.4582 181.6559 C 157.2397 181.4465 157.1278 181.1891 157.1224 180.8838 C 157.117 180.5785 157.2216 180.3171 157.4362 180.0996 L 157.9389 179.5903 C 158.1228 179.404 158.3093 179.4013 158.4984 179.5826 L 160.0019 181.0235 C 160.0754 181.094 160.1629 181.1286 160.2645 181.1271 C 160.366 181.1257 160.4526 181.0888 160.5241 181.0163 C 160.5936 180.9459 160.6281 180.8602 160.6277 180.7591 C 160.6273 180.6579 160.5904 180.5721 160.5169 180.5016 Z M 159.4869 181.5453 L 158.2294 180.34 L 157.9964 180.576 C 157.8043 180.7707 157.8071 180.9627 158.0045 181.152 L 158.9659 182.0733 C 159.0394 182.1438 159.1275 182.1779 159.23 182.1755 C 159.3326 182.173 159.4186 182.1365 159.4881 182.0661 C 159.5597 181.9937 159.5957 181.9064 159.5963 181.8044 C 159.597 181.7021 159.5604 181.6158 159.4869 181.5453 Z M 161.7234 179.2791 L 160.8849 178.4755 C 160.8114 178.405 160.7739 178.3198 160.7725 178.2197 C 160.7711 178.1196 160.8061 178.0333 160.8777 177.9608 C 160.9492 177.8883 161.0357 177.8514 161.1372 177.85 C 161.2388 177.8486 161.3264 177.8831 161.3999 177.9536 L 162.2446 178.7632 C 162.316 178.8318 162.4025 178.8642 162.5041 178.8608 C 162.6055 178.8573 162.6931 178.8183 162.7667 178.7438 L 163.2877 178.2158 C 163.3593 178.1432 163.3954 178.056 163.396 177.9538 C 163.3966 177.8517 163.3602 177.7654 163.2866 177.6949 L 160.1631 174.7013 C 160.0896 174.6308 160.0515 174.546 160.0491 174.4469 C 160.0466 174.3479 160.0802 174.2632 160.1497 174.1928 C 160.2192 174.1224 160.3088 174.0874 160.4187 174.088 C 160.5286 174.0885 160.6192 174.123 160.6907 174.1915 L 163.8015 177.1731 C 164.0242 177.3866 164.1347 177.6475 164.1328 177.956 C 164.131 178.2645 164.028 178.5222 163.8236 178.7293 L 163.3025 179.2573 C 163.0879 179.4748 162.8257 179.5851 162.5159 179.5883 C 162.2061 179.5916 161.9419 179.4885 161.7234 179.2791 Z M 161.9137 171.9452 L 162.1834 171.6718 C 162.255 171.5993 162.3415 171.5624 162.4431 171.5609 C 162.5446 171.5596 162.6321 171.5942 162.7056 171.6647 L 162.9325 171.8821 C 163.0061 171.9526 163.0447 172.039 163.0482 172.141 C 163.0517 172.2431 163.0177 172.3304 162.9462 172.4029 L 162.6703 172.6824 C 162.5967 172.7569 162.5076 172.7934 162.4029 172.7918 C 162.2982 172.7901 162.2133 172.7561 162.1481 172.6895 L 161.9209 172.4598 C 161.8474 172.3893 161.81 172.304 161.8085 172.204 C 161.8071 172.1039 161.8421 172.0177 161.9137 171.9452 Z M 167.3778 175.115 L 165.8085 176.7055 C 165.7369 176.778 165.6504 176.8148 165.5488 176.8163 C 165.4473 176.8177 165.3597 176.7831 165.2862 176.7126 C 165.2148 176.6441 165.1778 176.5594 165.1754 176.4583 C 165.1729 176.3572 165.2074 176.2704 165.279 176.1979 L 165.8062 175.6636 L 163.8299 173.7696 L 163.3088 174.2976 C 163.2373 174.3701 163.1502 174.4066 163.0476 174.407 C 162.945 174.4073 162.858 174.3734 162.7866 174.3048 C 162.7131 174.2343 162.6745 174.1481 162.671 174.046 C 162.6674 173.9439 162.7015 173.8566 162.773 173.7841 L 163.5577 172.9889 C 163.6292 172.9164 163.7168 172.8806 163.8204 172.8812 C 163.9241 172.8818 164.0127 172.9173 164.0862 172.9878 L 166.3273 175.1356 L 166.8422 174.6138 C 166.9138 174.5413 167.0013 174.5034 167.1048 174.4999 C 167.2084 174.4964 167.297 174.5299 167.3706 174.6004 C 167.4441 174.6709 167.4811 174.7567 167.4815 174.8578 C 167.4819 174.9589 167.4473 175.0446 167.3778 175.115 Z M 170.4174 172.0472 L 168.8603 173.6251 C 168.7887 173.6976 168.7011 173.7335 168.5975 173.7328 C 168.4939 173.7323 168.4053 173.6967 168.3317 173.6263 C 168.2603 173.5578 168.2233 173.473 168.2209 173.3719 C 168.2184 173.2708 168.2529 173.1841 168.3244 173.1116 L 168.8394 172.5897 L 165.7159 169.5961 L 165.1949 170.1241 C 165.1233 170.1966 165.0367 170.2335 164.9352 170.235 C 164.8337 170.2364 164.7461 170.2017 164.6726 170.1313 C 164.599 170.0608 164.5616 169.9756 164.5602 169.8755 C 164.5588 169.7754 164.5938 169.6891 164.6654 169.6166 L 165.45 168.8215 C 165.5195 168.7511 165.6061 168.7151 165.7097 168.7137 C 165.8133 168.7122 165.9008 168.7458 165.9722 168.8143 L 169.3605 172.0616 L 169.8816 171.5336 C 169.9511 171.4632 170.0377 171.4273 170.1413 171.4258 C 170.2448 171.4244 170.3324 171.458 170.4038 171.5264 C 170.4774 171.5969 170.5159 171.6832 170.5194 171.7853 C 170.5229 171.8873 170.4889 171.9747 170.4174 172.0472 Z M 173.4508 168.9732 L 171.8937 170.5513 C 171.8221 170.6237 171.7345 170.6596 171.6309 170.659 C 171.5273 170.6584 171.4387 170.6228 171.3651 170.5524 C 171.2937 170.4839 171.2567 170.3991 171.2543 170.298 C 171.2518 170.197 171.2863 170.1101 171.3579 170.0376 L 171.8728 169.5159 L 168.7493 166.5222 L 168.2283 167.0502 C 168.1567 167.1227 168.0701 167.1597 167.9686 167.161 C 167.867 167.1625 167.7795 167.1279 167.706 167.0574 C 167.6325 166.9869 167.5949 166.9017 167.5935 166.8016 C 167.5921 166.7015 167.6272 166.6152 167.6987 166.5428 L 168.4834 165.7476 C 168.5529 165.6772 168.6395 165.6413 168.743 165.6399 C 168.8466 165.6384 168.9342 165.6719 169.0056 165.7404 L 172.3939 168.9878 L 172.9149 168.4597 C 172.9844 168.3893 173.0711 168.3535 173.1746 168.352 C 173.2782 168.3506 173.3658 168.3841 173.4372 168.4525 C 173.5107 168.523 173.5493 168.6093 173.5528 168.7114 C 173.5563 168.8135 173.5224 168.9008 173.4508 168.9732 Z M 174.9535 163.417 L 175.5934 164.0302 C 175.6647 164.0987 175.7012 164.184 175.7027 164.2861 C 175.7041 164.3882 175.6701 164.4744 175.6006 164.5448 L 173.7799 166.3899 L 173.9343 166.538 C 174.0247 166.6245 174.1391 166.6597 174.2778 166.6436 L 174.5572 166.6152 C 174.7041 166.5948 174.8143 166.5473 174.8879 166.4728 L 176.2121 165.1308 C 176.2816 165.0604 176.3676 165.024 176.4701 165.0216 C 176.5727 165.0192 176.6608 165.0533 176.7343 165.1237 C 176.8057 165.1922 176.8417 165.278 176.8421 165.3812 C 176.8425 165.4843 176.809 165.5701 176.7416 165.6384 L 175.3836 167.0145 C 175.2937 167.1055 175.1799 167.1827 175.0419 167.2459 C 174.9038 167.3091 174.7905 167.3443 174.7013 167.3517 L 174.2634 167.3853 C 174.1331 167.4013 173.9914 167.3835 173.8383 167.3314 C 173.6853 167.2794 173.5645 167.211 173.4763 167.1264 L 172.2628 165.9634 C 172.1934 165.897 172.126 165.781 172.0604 165.6154 C 171.9949 165.4498 171.9694 165.2954 171.9839 165.1522 L 172.0251 164.7686 C 172.0485 164.513 172.146 164.2982 172.3176 164.1242 L 173.041 163.3911 C 173.2229 163.2068 173.4722 163.1074 173.7892 163.0928 L 174.1714 163.0784 C 174.4386 163.0604 174.6993 163.1733 174.9535 163.417 Z M 172.8404 165.4774 L 173.2502 165.8701 L 174.8135 164.2859 L 174.4447 163.9325 C 174.3459 163.8379 174.2407 163.7954 174.1289 163.8051 L 173.8431 163.8275 C 173.7004 163.8437 173.5983 163.8829 173.5371 163.945 L 172.8902 164.6004 C 172.8105 164.6812 172.7663 164.7819 172.7576 164.9026 L 172.7367 165.1786 C 172.7218 165.2973 172.7564 165.3969 172.8404 165.4774 Z M 175.118 161.2863 L 176.2981 160.0905 C 176.482 159.9041 176.7007 159.7933 176.9541 159.7582 C 177.2075 159.723 177.3878 159.7569 177.4949 159.8596 C 177.5706 159.9321 177.6066 160.0178 177.6028 160.117 C 177.599 160.2161 177.5654 160.2978 177.5021 160.362 C 177.4203 160.4447 177.3079 160.4841 177.1649 160.48 C 177.0218 160.4758 176.9135 160.511 176.8399 160.5855 L 175.6752 161.7659 C 175.5607 161.8818 175.5528 161.9872 175.6515 162.0818 C 175.7208 162.1483 175.8113 162.1603 175.9226 162.118 L 177.9168 161.3276 C 178.1188 161.2472 178.3341 161.2289 178.5627 161.2727 C 178.7913 161.3166 178.9907 161.4201 179.1609 161.5832 C 179.3879 161.8007 179.502 162.0641 179.5033 162.3737 C 179.5045 162.6831 179.4061 162.9382 179.2079 163.1391 L 178.1657 164.1953 C 177.9858 164.3775 177.7631 164.4934 177.4974 164.543 C 177.2318 164.5926 177.0464 164.5671 176.9414 164.4664 C 176.8721 164.4 176.8356 164.3156 176.8321 164.2136 C 176.8286 164.1115 176.8667 164.0201 176.9464 163.9393 C 177.0117 163.873 177.1196 163.8383 177.2699 163.8353 C 177.4201 163.8321 177.5656 163.7592 177.7066 163.6163 L 178.666 162.644 C 178.7417 162.5674 178.7751 162.4745 178.7663 162.3654 C 178.7575 162.2562 178.7142 162.1644 178.6365 162.0899 C 178.5167 161.9751 178.3733 161.9504 178.2064 162.0161 L 176.1841 162.8038 C 175.9903 162.88 175.7999 162.8989 175.6128 162.8606 C 175.4257 162.8224 175.2723 162.7458 175.1526 162.631 C 174.9635 162.4498 174.8634 162.228 174.8524 161.9656 C 174.8415 161.7033 174.93 161.4769 175.118 161.2863 Z M 184.4673 159.4004 L 180.6143 163.3049 L 180.0785 162.7914 L 183.9315 158.8869 L 184.4673 159.4004 Z M 185.8478 156.4104 L 184.7473 157.5255 C 184.5532 157.7223 184.3278 157.8326 184.0712 157.8565 L 183.1239 157.9339 C 182.8279 157.9646 182.5633 157.8681 182.3301 157.6445 L 181.6398 156.983 C 181.4068 156.7758 181.3014 156.4973 181.3234 156.1477 L 181.3736 155.3075 C 181.3969 155.0436 181.4912 154.8278 181.6568 154.6601 L 182.8124 153.4891 C 182.8839 153.4166 182.9704 153.3797 183.0719 153.3783 C 183.1735 153.3769 183.2611 153.4115 183.3346 153.482 C 183.4102 153.5544 183.4482 153.6402 183.4486 153.7392 C 183.4489 153.8383 183.4134 153.9241 183.3419 153.9966 L 182.2353 155.118 C 182.1658 155.1883 182.1278 155.2828 182.1211 155.4014 L 182.0697 156.1681 C 182.0611 156.2929 182.1063 156.4025 182.2051 156.4972 L 182.8512 157.1165 C 182.9206 157.1829 183.006 157.2124 183.1074 157.2048 L 183.9582 157.1257 C 184.0679 157.1181 184.1698 157.0667 184.2637 156.9714 L 185.3183 155.9029 C 185.3877 155.8325 185.4737 155.796 185.5762 155.7936 C 185.6789 155.7912 185.767 155.8253 185.8405 155.8957 C 185.914 155.9662 185.9515 156.0515 185.9529 156.1516 C 185.9543 156.2516 185.9194 156.3379 185.8478 156.4104 Z M 187.0459 151.0821 L 188.1648 152.1544 C 188.4022 152.382 188.5131 152.7027 188.4972 153.1166 C 188.4813 153.5305 188.3579 153.8544 188.1269 154.0884 L 187.523 154.7003 C 187.288 154.9385 186.9608 155.0681 186.5413 155.0892 C 186.1219 155.1103 185.7966 155.01 185.5654 154.7885 L 184.4466 153.7161 C 184.2154 153.4946 184.1022 153.1795 184.1067 152.7709 C 184.1113 152.3623 184.2363 152.0337 184.4815 151.7852 L 185.0853 151.1733 C 185.312 150.9353 185.6351 150.8026 186.0544 150.7754 C 186.4738 150.7482 186.8043 150.8505 187.0459 151.0821 Z M 184.9898 153.2092 L 186.0614 154.2363 C 186.158 154.3289 186.2684 154.3682 186.3926 154.3543 L 186.756 154.3217 C 186.8367 154.3144 186.9158 154.2715 186.9935 154.1928 L 187.5913 153.5872 C 187.6792 153.4981 187.7262 153.3861 187.7326 153.2512 L 187.7471 152.9568 C 187.76 152.8443 187.7212 152.7447 187.6309 152.6581 L 186.5594 151.6311 C 186.4543 151.5303 186.3449 151.4879 186.2312 151.5038 L 185.9021 151.5451 C 185.7882 151.5569 185.6905 151.6042 185.6087 151.687 L 185.0754 152.2275 C 184.9589 152.3455 184.8973 152.4638 184.8907 152.5824 L 184.8705 152.9075 C 184.8618 153.024 184.9015 153.1246 184.9898 153.2092 Z M 189.2435 152.4473 L 186.7314 150.0397 C 186.6579 149.9692 186.6204 149.8839 186.619 149.7838 C 186.6176 149.6838 186.6526 149.5975 186.7242 149.525 C 186.857 149.3904 187.0079 149.37 187.1772 149.4637 C 187.1816 149.1858 187.2716 148.9578 187.4474 148.7796 C 187.6538 148.5705 187.9138 148.4853 188.2273 148.5239 C 188.2101 148.185 188.2995 147.9162 188.4957 147.7174 C 188.655 147.5558 188.8519 147.4715 189.086 147.4641 C 189.3201 147.4568 189.5316 147.5356 189.7205 147.7005 L 191.9562 149.6983 C 192.0276 149.7668 192.0641 149.852 192.0655 149.9541 C 192.067 150.0563 192.033 150.1425 191.9635 150.213 C 191.8919 150.2854 191.8043 150.3224 191.7007 150.3238 C 191.5971 150.3252 191.5086 150.2927 191.4351 150.2263 L 189.2967 148.2978 C 189.1792 148.1931 189.0888 148.1729 189.0254 148.2371 C 188.9906 148.2723 188.9706 148.3237 188.9654 148.3911 L 188.9237 148.9555 L 190.8588 150.8103 C 190.9303 150.8788 190.9662 150.9625 190.9665 151.0616 C 190.9669 151.1606 190.9314 151.2464 190.8598 151.3189 C 190.7903 151.3893 190.7043 151.4258 190.6017 151.4282 C 190.4991 151.4306 190.4112 151.3965 190.3376 151.3261 L 188.2322 149.3082 C 188.1418 149.2216 188.0589 149.2166 187.9832 149.2932 C 187.9464 149.3305 187.9263 149.3778 187.923 149.435 L 187.8737 150.1189 L 189.7584 151.9254 C 189.8298 151.994 189.8674 152.0782 189.8709 152.1782 C 189.8743 152.2783 189.8413 152.3635 189.7718 152.4339 C 189.7003 152.5063 189.6122 152.5439 189.5075 152.5463 C 189.4029 152.5487 189.3149 152.5158 189.2435 152.4473 Z M 161.9145 185.9295 C 160.604 187.045 159.3176 187.6745 158.2009 187.5046 C 157.3706 187.3782 156.5399 186.5144 156.513 186.4921 C 156.4566 186.4454 156.139 186.3432 155.7252 185.9295 C 155.7032 185.9074 155.1702 185.256 155.1625 185.2545 C 154.8366 185.1887 154.8584 185.172 154.856 185.1736 L 126.8059 213.3822 C 126.0503 214.1613 126.0524 213.5416 126.0542 214.0934 C 126.0548 214.2684 126.5867 214.2402 126.0542 214.8809 C 125.5149 215.5298 125.5755 215.2929 125.2665 215.5559 C 125.2245 215.5917 122.9994 217.6381 122.9783 217.656 C 117.9877 221.9041 118.3101 221.7329 118.1697 221.5632 L 116.8128 220.2197 C 116.6532 220.0876 117.2112 219.5391 119.2648 217.206 C 119.2873 217.1804 121.7184 214.3068 121.7405 214.2808 C 122.5056 213.3824 122.9433 213.0226 123.0533 212.8933 C 123.0644 212.8803 123.4453 212.2422 123.6535 212.1432 C 124.209 211.8794 124.203 212.4915 124.558 212.1474 L 153.0712 183.5009 C 153.0726 183.4989 153.0731 183.4707 153.0244 183.2294 C 153.0122 183.169 151.4002 182.1422 150.9988 180.4168 C 150.8415 179.7404 150.4557 178.1624 154.2716 174.4633 L 184.993 143.7494 C 186.6892 142.0004 188.7607 140.0206 190.8728 140.7399 C 192.2112 141.1957 192.729 141.8081 195.9367 145.0151 C 197.4016 146.4796 198.8184 148.1438 196.4994 151.2029 C 195.8414 152.0708 192.838 155.0883 179.2819 168.6412 C 166.4962 181.4239 163.0756 184.9412 161.9145 185.9295 Z" fill-rule="evenodd" fill="#CFFF04" fill-opacity="1" stroke="#CFFF04" stroke-opacity="1" stroke-width="0.1" stroke-linecap="round" stroke-linejoin="round"/>
</g>
</g>
</svg>