<?xml version="1.0" encoding="utf-8"?>
<!DOCTYPE svg PUBLIC "-//W3C//DTD SVG 1.1//EN" "http://www.w3.org/Graphics/SVG/1.1/DTD/svg11.dtd">
<!-- exported from Silhouette Studio® Business Edition V4.4.090ssbe -->
<svg version="1.1" xmlns="http://www.w3.org/2000/svg" xmlns:xlink="http://www.w3.org/1999/xlink" width="304.8mm" height="304.8mm" viewBox="0 0 304.8 304.8">
<defs/>
<path d="M -1.862671 -1.577316 L -1.862671 309.4134 L 309.1276 309.4134 L 309.1276 -1.577316 L -1.862671 -1.577316 Z" fill-rule="evenodd" fill="#000000" fill-opacity="1" stroke="#CFFF04" stroke-opacity="1" stroke-width="0.1" stroke-linecap="round" stroke-linejoin="round"/>
<g>
<g>
<path d="M 163.8127 59.87334 L 163.8359 59.87334" fill-rule="evenodd" fill="none" fill-opacity="1" stroke="#FFFFFF" stroke-opacity="1" stroke-width="0.1" stroke-linecap="round" stroke-linejoin="round"/>
<path d="M 36.25795 34.82832 L 47.51933 34.82832 L 47.51933 71.19197 L 36.25795 71.19197 L 36.25795 34.82832 Z" fill-rule="evenodd" fill="#CFFF04" fill-opacity="1" stroke="#EEFF01" stroke-opacity="1" stroke-width="0.1" stroke-linecap="round" stroke-linejoin="round"/>
<path d="M 94.0153 34.82833 L 105.7727 34.82833 L 113.9583 60.99726 L 122.0198 34.82833 L 133.4299 34.82833 L 119.9362 71.19198 L 107.7571 71.19198 L 94.0153 34.82833 Z" fill-rule="evenodd" fill="#CFFF04" fill-opacity="1" stroke="#EEFF01" stroke-opacity="1" stroke-width="0.1" stroke-linecap="round" stroke-linejoin="round"/>
<path d="M 146.5204 53.03499 C 146.5204 47.0984 148.174 42.47646 151.4813 39.16917 C 154.7886 35.86187 159.394 34.20823 165.2975 34.20823 C 171.3499 34.20823 176.0132 35.83293 179.2874 39.08233 C 182.5616 42.33175 184.1987 46.88341 184.1987 52.73732 C 184.1987 56.98718 183.4835 60.47224 182.0531 63.19249 C 180.6227 65.91273 178.5557 68.0294 175.852 69.5425 C 173.1482 71.05559 169.7789 71.81212 165.744 71.8121 C 161.643 71.8121 158.2489 71.15892 155.5617 69.85255 C 152.8745 68.54618 150.6958 66.47912 149.0257 63.65138 C 147.3555 60.82364 146.5204 57.28484 146.5204 53.03499 Z M 157.7569 53.08461 C 157.7569 56.7557 158.439 59.39326 159.8033 60.99728 C 161.1676 62.60131 163.0238 63.40333 165.3719 63.40333 C 167.7863 63.40333 169.6549 62.61785 170.9778 61.04689 C 172.3007 59.47592 172.9622 56.65646 172.9622 52.58851 C 172.9622 49.16547 172.2718 46.66432 170.891 45.08508 C 169.5102 43.50585 167.6375 42.71623 165.2727 42.71623 C 163.0072 42.71623 161.1882 43.51825 159.8157 45.12229 C 158.4432 46.72632 157.7569 49.38044 157.7569 53.08461 Z" fill-rule="evenodd" fill="#CFFF04" fill-opacity="1" stroke="#EEFF01" stroke-opacity="1" stroke-width="0.1" stroke-linecap="round" stroke-linejoin="round"/>
<path d="M 203.2424 34.82833 L 214.5037 34.82833 L 214.5037 71.19198 L 203.2424 71.19198 L 203.2424 34.82833 Z" fill-rule="evenodd" fill="#CFFF04" fill-opacity="1" stroke="#EEFF01" stroke-opacity="1" stroke-width="0.1" stroke-linecap="round" stroke-linejoin="round"/>
<path d="M 235.2588 34.82834 L 251.9523 34.82834 C 255.2431 34.82834 257.9013 35.27482 259.927 36.16778 C 261.9527 37.06075 263.627 38.34233 264.95 40.01251 C 266.2729 41.68269 267.232 43.62573 267.8273 45.84163 C 268.4226 48.05751 268.7202 50.40568 268.7202 52.88614 C 268.7202 56.77221 268.2779 59.78597 267.3932 61.92744 C 266.5085 64.06891 265.2807 65.86312 263.7097 67.31007 C 262.1387 68.75702 260.452 69.72025 258.6495 70.19979 C 256.1856 70.86125 253.9532 71.19198 251.9523 71.19198 L 235.2588 71.19198 L 235.2588 34.82834 Z M 246.4953 43.06349 L 246.4953 62.93203 L 249.2486 62.93203 C 251.5968 62.93203 253.267 62.67159 254.2592 62.15071 C 255.2514 61.62981 256.0285 60.7203 256.5908 59.42219 C 257.153 58.12408 257.4341 56.01982 257.4341 53.10938 C 257.4341 49.25639 256.8058 46.61882 255.549 45.1967 C 254.2923 43.77456 252.2086 43.06349 249.2982 43.06349 L 246.4953 43.06349 Z" fill-rule="evenodd" fill="#CFFF04" fill-opacity="1" stroke="#EEFF01" stroke-opacity="1" stroke-width="0.1" stroke-linecap="round" stroke-linejoin="round"/>
</g>
<g>
<path d="M 36.07959 78.78223 L 41.41259 78.78223 L 43.33495 88.93974 L 46.13788 78.78223 L 51.45843 78.78223 L 54.27376 88.93974 L 56.19617 78.78223 L 61.50432 78.78223 L 57.49842 96.96407 L 51.99173 96.96407 L 48.80438 85.51671 L 45.62938 96.96407 L 40.12274 96.96407 L 36.07959 78.78223 Z" fill-rule="evenodd" fill="#CFFF04" fill-opacity="1" stroke="#EEFF01" stroke-opacity="1" stroke-width="0.1" stroke-linecap="round" stroke-linejoin="round"/>
<path d="M 79.01952 93.9627 L 72.6199 93.9627 L 71.73933 96.96407 L 65.99706 96.96407 L 72.83073 78.78223 L 78.95749 78.78223 L 85.79118 96.96407 L 79.91248 96.96407 L 79.01952 93.9627 Z M 77.84129 90.03116 L 75.83211 83.49512 L 73.83534 90.03116 L 77.84129 90.03116 Z" fill-rule="evenodd" fill="#CFFF04" fill-opacity="1" stroke="#EEFF01" stroke-opacity="1" stroke-width="0.1" stroke-linecap="round" stroke-linejoin="round"/>
<path d="M 92.1442 96.96405 L 92.14418 78.78223 L 101.5079 78.78223 C 103.2443 78.78223 104.5713 78.93105 105.4891 79.22871 C 106.4069 79.52637 107.1469 80.07827 107.7091 80.88442 C 108.2713 81.69057 108.5525 82.67242 108.5525 83.82997 C 108.5525 84.8387 108.3375 85.70893 107.9075 86.44067 C 107.4776 87.17241 106.8864 87.76566 106.134 88.22041 C 105.6545 88.5098 104.9971 88.74957 104.162 88.93972 C 104.8318 89.16296 105.3196 89.38621 105.6255 89.60947 C 105.8322 89.7583 106.132 90.07662 106.5247 90.56445 C 106.9174 91.05228 107.1799 91.42848 107.3122 91.69306 L 110.0284 96.96405 L 103.6784 96.96405 L 100.677 91.40781 C 100.2966 90.68848 99.95768 90.22132 99.66005 90.00635 C 99.25491 89.72523 98.796 89.58466 98.28334 89.58466 L 97.78725 89.58466 L 97.78725 96.96405 L 92.1442 96.96405 Z M 97.78723 86.14919 L 100.1561 86.14919 C 100.4124 86.14919 100.9085 86.06651 101.6444 85.90115 C 102.0164 85.82673 102.3203 85.63657 102.5559 85.33067 C 102.7916 85.02473 102.9094 84.67334 102.9094 84.27647 C 102.9094 83.68942 102.7234 83.2388 102.3513 82.92461 C 101.9792 82.61041 101.2806 82.45332 100.2553 82.45332 L 97.78723 82.45332 L 97.78723 86.14919 Z" fill-rule="evenodd" fill="#CFFF04" fill-opacity="1" stroke="#EEFF01" stroke-opacity="1" stroke-width="0.1" stroke-linecap="round" stroke-linejoin="round"/>
<path d="M 116.3814 96.96405 L 116.3813 78.78223 L 125.7451 78.78223 C 127.4814 78.78223 128.8085 78.93105 129.7262 79.22871 C 130.644 79.52637 131.384 80.07827 131.9463 80.88442 C 132.5085 81.69057 132.7896 82.67242 132.7896 83.82997 C 132.7896 84.8387 132.5746 85.70893 132.1447 86.44067 C 131.7148 87.17241 131.1236 87.76566 130.3712 88.22041 C 129.8916 88.5098 129.2343 88.74957 128.3992 88.93972 C 129.0689 89.16296 129.5567 89.38621 129.8627 89.60947 C 130.0694 89.7583 130.3691 90.07662 130.7618 90.56445 C 131.1546 91.05228 131.4171 91.42848 131.5494 91.69306 L 134.2655 96.96405 L 127.9155 96.96405 L 124.9142 91.40781 C 124.5338 90.68848 124.1949 90.22132 123.8972 90.00635 C 123.4921 89.72523 123.0332 89.58466 122.5205 89.58466 L 122.0244 89.58466 L 122.0244 96.96405 L 116.3814 96.96405 Z M 122.0244 86.14919 L 124.3933 86.14919 C 124.6496 86.14919 125.1457 86.06651 125.8816 85.90115 C 126.2536 85.82673 126.5575 85.63657 126.7931 85.33067 C 127.0288 85.02473 127.1466 84.67334 127.1466 84.27647 C 127.1466 83.68942 126.9605 83.2388 126.5885 82.92461 C 126.2164 82.61041 125.5177 82.45332 124.4925 82.45332 L 122.0244 82.45332 L 122.0244 86.14919 Z" fill-rule="evenodd" fill="#CFFF04" fill-opacity="1" stroke="#EEFF01" stroke-opacity="1" stroke-width="0.1" stroke-linecap="round" stroke-linejoin="round"/>
<path d="M 151.731 93.9627 L 145.3314 93.9627 L 144.4509 96.96407 L 138.7086 96.96407 L 145.5423 78.78223 L 151.669 78.78223 L 158.5027 96.96407 L 152.624 96.96407 L 151.731 93.9627 Z M 150.5528 90.03116 L 148.5437 83.49512 L 146.5468 90.03116 L 150.5528 90.03116 Z" fill-rule="evenodd" fill="#CFFF04" fill-opacity="1" stroke="#EEFF01" stroke-opacity="1" stroke-width="0.1" stroke-linecap="round" stroke-linejoin="round"/>
<path d="M 164.8185 78.78223 L 170.0647 78.78223 L 176.9108 88.84052 L 176.9108 78.78223 L 182.2066 78.78223 L 182.2066 96.96405 L 176.9108 96.96405 L 170.1019 86.98017 L 170.1019 96.96405 L 164.8185 96.96405 L 164.8185 78.78223 Z" fill-rule="evenodd" fill="#CFFF04" fill-opacity="1" stroke="#EEFF01" stroke-opacity="1" stroke-width="0.1" stroke-linecap="round" stroke-linejoin="round"/>
<path d="M 189.1426 78.78223 L 206.2206 78.78223 L 206.2206 83.27188 L 200.4907 83.27188 L 200.4907 96.96407 L 194.8724 96.96407 L 194.8724 83.27188 L 189.1426 83.27188 L 189.1426 78.78223 Z" fill-rule="evenodd" fill="#CFFF04" fill-opacity="1" stroke="#EEFF01" stroke-opacity="1" stroke-width="0.1" stroke-linecap="round" stroke-linejoin="round"/>
<path d="M 213.4666 78.78223 L 219.0972 78.78223 L 219.0972 96.96407 L 213.4666 96.96407 L 213.4666 78.78223 Z" fill-rule="evenodd" fill="#CFFF04" fill-opacity="1" stroke="#EEFF01" stroke-opacity="1" stroke-width="0.1" stroke-linecap="round" stroke-linejoin="round"/>
<path d="M 227.5959 78.78223 L 242.6523 78.78223 L 242.6523 82.66416 L 233.2265 82.66416 L 233.2265 85.5539 L 241.9702 85.5539 L 241.9702 89.26221 L 233.2265 89.26221 L 233.2265 92.84648 L 242.9252 92.84648 L 242.9252 96.96406 L 227.5959 96.96406 L 227.5959 78.78223 Z" fill-rule="evenodd" fill="#CFFF04" fill-opacity="1" stroke="#EEFF01" stroke-opacity="1" stroke-width="0.1" stroke-linecap="round" stroke-linejoin="round"/>
<path d="M 249.4518 90.94893 L 254.7972 90.61406 C 254.9129 91.48222 255.1486 92.14368 255.5041 92.59843 C 256.0829 93.3343 256.9096 93.70225 257.9845 93.70225 C 258.7865 93.70225 259.4046 93.51414 259.8387 93.13794 C 260.2728 92.76174 260.4898 92.32559 260.4898 91.8295 C 260.4898 91.35821 260.2831 90.93652 259.8697 90.56445 C 259.4563 90.19238 258.4971 89.84098 256.9923 89.51025 C 254.5284 88.95628 252.7715 88.22041 251.7214 87.30264 C 250.6631 86.38486 250.1339 85.2149 250.1339 83.79277 C 250.1339 82.85847 250.4047 81.97583 250.9463 81.14487 C 251.4878 80.31391 252.3022 79.66072 253.3895 79.1853 C 254.4768 78.70988 255.9671 78.47217 257.8605 78.47217 C 260.1838 78.47217 261.9554 78.90418 263.175 79.76822 C 264.3945 80.63225 265.12 82.00684 265.3515 83.89199 L 260.0558 84.20205 C 259.9152 83.38349 259.6195 82.78818 259.1689 82.41611 C 258.7183 82.04404 258.0961 81.858 257.3024 81.858 C 256.6492 81.858 256.1573 81.99651 255.8266 82.27348 C 255.4958 82.55048 255.3305 82.8874 255.3305 83.28427 C 255.3305 83.57366 255.4669 83.83412 255.7397 84.06563 C 256.0043 84.3054 256.6327 84.52864 257.6249 84.73534 C 260.0805 85.26451 261.8396 85.79988 262.902 86.34145 C 263.9645 86.88302 264.7376 87.55482 265.2213 88.35683 C 265.705 89.15885 265.9468 90.05595 265.9468 91.04814 C 265.9468 92.21396 265.6243 93.28883 264.9794 94.27275 C 264.3345 95.25667 263.4333 96.00288 262.2758 96.51138 C 261.1183 97.01987 259.6588 97.27412 257.8977 97.27412 C 254.8054 97.27412 252.664 96.67881 251.4734 95.48819 C 250.2827 94.29756 249.6089 92.78448 249.4518 90.94893 Z" fill-rule="evenodd" fill="#CFFF04" fill-opacity="1" stroke="#EEFF01" stroke-opacity="1" stroke-width="0.1" stroke-linecap="round" stroke-linejoin="round"/>
</g>
<g>
<path d="M 37.96673 250.0452 L 53.40075 250.0452 L 53.40075 254.386 L 44.2368 254.386 L 44.2368 257.9138 L 52.06405 257.9138 L 52.06405 261.9928 L 44.2368 261.9928 L 44.2368 270.2472 L 37.96673 270.2472 L 37.96673 250.0452 Z" fill-rule="evenodd" fill="#CFFF04" fill-opacity="1" stroke="#EEFF01" stroke-opacity="1" stroke-width="0.1" stroke-linecap="round" stroke-linejoin="round"/>
<path d="M 57.47114 260.16 C 57.47114 256.8619 58.38983 254.2942 60.22721 252.4568 C 62.0646 250.6194 64.62313 249.7007 67.90286 249.7007 C 71.26527 249.7007 73.856 250.6033 75.675 252.4085 C 77.49402 254.2138 78.40352 256.7425 78.40352 259.9947 C 78.40352 262.3557 78.0062 264.2918 77.21153 265.803 C 76.41686 267.3143 75.26849 268.4902 73.76643 269.3309 C 72.26437 270.1714 70.39255 270.5917 68.15094 270.5917 C 65.87258 270.5917 63.98696 270.2288 62.49409 269.5031 C 61.00121 268.7773 59.79084 267.6289 58.86296 266.058 C 57.93508 264.487 57.47114 262.521 57.47114 260.16 Z M 63.71365 260.1876 C 63.71365 262.2271 64.09262 263.6924 64.85054 264.5835 C 65.60846 265.4746 66.63969 265.9202 67.94423 265.9202 C 69.28551 265.9202 70.32364 265.4838 71.05859 264.6111 C 71.79355 263.7383 72.161 262.1719 72.161 259.9119 C 72.161 258.0103 71.77746 256.6207 71.01035 255.7434 C 70.24324 254.8661 69.20282 254.4274 67.88908 254.4274 C 66.63048 254.4274 65.61993 254.8729 64.85742 255.764 C 64.09491 256.6552 63.71365 258.1297 63.71365 260.1876 Z" fill-rule="evenodd" fill="#CFFF04" fill-opacity="1" stroke="#EEFF01" stroke-opacity="1" stroke-width="0.1" stroke-linecap="round" stroke-linejoin="round"/>
<path d="M 83.342 270.2472 L 83.342 250.0452 L 93.74617 250.0452 C 95.67542 250.0452 97.14993 250.2106 98.16968 250.5413 C 99.18943 250.872 100.0117 251.4852 100.6364 252.381 C 101.2611 253.2767 101.5734 254.3676 101.5734 255.6538 C 101.5734 256.7746 101.3346 257.7415 100.8568 258.5545 C 100.3791 259.3676 99.72227 260.0267 98.88626 260.532 C 98.35342 260.8536 97.62305 261.12 96.69518 261.3313 C 97.43932 261.5793 97.98135 261.8274 98.32127 262.0754 C 98.55095 262.2408 98.88397 262.5945 99.32034 263.1365 C 99.75673 263.6786 100.0484 264.0966 100.1954 264.3906 L 103.2133 270.2472 L 96.15775 270.2472 L 92.82289 264.0736 C 92.40029 263.2743 92.02363 262.7552 91.6929 262.5164 C 91.24274 262.204 90.73288 262.0479 90.16328 262.0479 L 89.61208 262.0479 L 89.61208 270.2472 L 83.342 270.2472 Z M 89.61206 258.2307 L 92.24411 258.2307 C 92.5289 258.2307 93.08012 258.1388 93.89775 257.9551 C 94.31116 257.8724 94.64879 257.6611 94.91061 257.3212 C 95.17244 256.9813 95.30336 256.5909 95.30336 256.1499 C 95.30336 255.4976 95.09666 254.9969 94.68324 254.6478 C 94.26983 254.2987 93.49353 254.1242 92.35435 254.1242 L 89.61206 254.1242 L 89.61206 258.2307 Z" fill-rule="evenodd" fill="#CFFF04" fill-opacity="1" stroke="#EEFF01" stroke-opacity="1" stroke-width="0.1" stroke-linecap="round" stroke-linejoin="round"/>
<path d="M 130.0402 266.9124 L 122.9296 266.9124 L 121.9512 270.2472 L 115.5708 270.2472 L 123.1638 250.0452 L 129.9713 250.0452 L 137.5643 270.2472 L 131.0324 270.2472 L 130.0402 266.9124 Z M 128.7311 262.544 L 126.4987 255.2818 L 124.28 262.544 L 128.7311 262.544 Z" fill-rule="evenodd" fill="#CFFF04" fill-opacity="1" stroke="#EEFF01" stroke-opacity="1" stroke-width="0.1" stroke-linecap="round" stroke-linejoin="round"/>
<path d="M 151.9613 250.0452 L 158.2038 250.0452 L 158.2038 265.2725 L 167.9465 265.2725 L 167.9465 270.2472 L 151.9613 270.2472 L 151.9613 250.0452 Z" fill-rule="evenodd" fill="#CFFF04" fill-opacity="1" stroke="#EEFF01" stroke-opacity="1" stroke-width="0.1" stroke-linecap="round" stroke-linejoin="round"/>
<path d="M 172.5268 250.0453 L 178.783 250.0453 L 178.783 270.2473 L 172.5268 270.2473 L 172.5268 250.0453 Z" fill-rule="evenodd" fill="#CFFF04" fill-opacity="1" stroke="#EEFF01" stroke-opacity="1" stroke-width="0.1" stroke-linecap="round" stroke-linejoin="round"/>
<path d="M 182.757 250.0452 L 189.2889 250.0452 L 193.8364 264.5836 L 198.315 250.0452 L 204.654 250.0452 L 197.1575 270.2472 L 190.3913 270.2472 L 182.757 250.0452 Z" fill-rule="evenodd" fill="#CFFF04" fill-opacity="1" stroke="#EEFF01" stroke-opacity="1" stroke-width="0.1" stroke-linecap="round" stroke-linejoin="round"/>
<path d="M 208.4487 250.0453 L 214.705 250.0453 L 214.705 270.2473 L 208.4487 270.2473 L 208.4487 250.0453 Z" fill-rule="evenodd" fill="#CFFF04" fill-opacity="1" stroke="#EEFF01" stroke-opacity="1" stroke-width="0.1" stroke-linecap="round" stroke-linejoin="round"/>
<path d="M 220.7184 250.0452 L 226.5475 250.0452 L 234.1543 261.2211 L 234.1543 250.0452 L 240.0385 250.0452 L 240.0385 270.2472 L 234.1543 270.2472 L 226.5889 259.1541 L 226.5889 270.2472 L 220.7184 270.2472 L 220.7184 250.0452 Z" fill-rule="evenodd" fill="#CFFF04" fill-opacity="1" stroke="#EEFF01" stroke-opacity="1" stroke-width="0.1" stroke-linecap="round" stroke-linejoin="round"/>
<path d="M 255.836 262.9298 L 255.836 258.7269 L 265.4822 258.7269 L 265.4822 267.3396 C 263.6356 268.5982 262.0027 269.4549 260.5833 269.9096 C 259.1639 270.3643 257.4805 270.5917 255.5328 270.5917 C 253.135 270.5917 251.1805 270.1829 249.6693 269.3653 C 248.158 268.5476 246.9867 267.3304 246.1553 265.7135 C 245.3239 264.0966 244.9082 262.2409 244.9082 260.1463 C 244.9082 257.9414 245.3629 256.0236 246.2724 254.3929 C 247.1819 252.7623 248.514 251.5243 250.2687 250.6791 C 251.6376 250.0268 253.4796 249.7007 255.7947 249.7007 C 258.0271 249.7007 259.6967 249.9028 260.8038 250.307 C 261.9108 250.7113 262.8295 251.3383 263.5599 252.1881 C 264.2903 253.0379 264.8392 254.115 265.2066 255.4196 L 259.1846 256.4944 C 258.9365 255.7319 258.5162 255.1486 257.9236 254.7444 C 257.3311 254.3401 256.5756 254.138 255.6568 254.138 C 254.288 254.138 253.197 254.6134 252.384 255.5643 C 251.571 256.5151 251.1644 258.0194 251.1644 260.0773 C 251.1644 262.2638 251.5755 263.8256 252.3978 264.7627 C 253.22 265.6997 254.3661 266.1683 255.836 266.1683 C 256.5342 266.1683 257.2002 266.0672 257.8341 265.8651 C 258.468 265.663 259.1938 265.3185 260.0114 264.8316 L 260.0114 262.9298 L 255.836 262.9298 Z" fill-rule="evenodd" fill="#CFFF04" fill-opacity="1" stroke="#EEFF01" stroke-opacity="1" stroke-width="0.1" stroke-linecap="round" stroke-linejoin="round"/>
</g>
<g>
<path d="M 143.193 180.4171 C 141.9393 179.9836 140.987 178.9052 140.6479 177.5349 C 140.582 177.2688 140.5022 176.3658 140.4705 175.5284 L 140.4129 174.0057 L 139.5276 174.8381 C 138.2871 176.0042 137.7115 176.3357 136.8411 176.3849 C 136.2297 176.4194 136.0836 176.3891 135.5167 176.1098 C 134.6954 175.7053 133.4963 174.4579 133.0705 173.5651 C 132.5284 172.4285 132.4848 171.681 132.8279 169.4036 C 132.9144 168.8299 132.9578 168.1612 132.9244 167.9177 C 132.8363 167.2747 132.3783 166.4914 131.3606 165.2433 C 129.813 163.3454 128.9379 162.1591 128.703 161.6409 C 128.3786 160.9252 128.1752 159.8068 128.0767 158.1968 C 128.0157 157.2001 127.945 156.7257 127.8315 156.5523 C 127.7437 156.4183 127.2985 156.1046 126.8422 155.8552 C 125.1158 154.9118 123.6402 153.6838 122.4414 152.1926 C 121.4209 150.9232 119.4704 147.8954 118.8587 146.631 C 117.1209 143.0388 116.0565 139.7689 115.415 136.0517 C 115.0621 134.0066 114.9622 132.8101 114.9622 130.6342 C 114.9622 123.5102 117.2 118.0588 122.0764 113.3048 C 124.8304 110.6198 127.8275 108.7307 131.719 107.2272 C 134.0279 106.3351 136.8781 105.6707 140.2629 105.2354 C 141.4814 105.0786 145.9099 105.0611 146.0615 105.2124 C 146.1402 105.2909 146.0965 105.5276 145.9045 106.0629 C 145.4984 107.1956 144.9836 108.4158 144.5152 109.3564 C 143.9926 110.4059 143.563 111.4785 143.563 111.7339 C 143.563 112.0656 144.0307 112.1887 145.5657 112.2613 C 147.5089 112.3532 147.9059 112.57 147.7311 113.4443 C 147.6517 113.8418 146.2518 116.8066 144.8041 119.6438 C 143.5361 122.1288 143.3811 122.5896 143.7187 122.87 C 143.8224 122.9562 144.3826 123.0201 145.3993 123.0618 C 146.6793 123.1143 146.9796 123.157 147.2687 123.3276 C 147.9179 123.7106 147.8566 123.905 145.6892 128.3337 C 143.6343 132.5327 142.9822 133.977 142.8931 134.526 L 142.8368 134.8732 L 143.2836 134.8732 L 143.7303 134.8732 L 149.1398 129.5678 C 152.1151 126.6498 154.7534 123.9907 155.0028 123.6587 C 155.4085 123.1186 155.6746 122.4429 155.536 122.3042 C 155.5078 122.276 155.1769 122.2092 154.8007 122.1559 C 154.4246 122.1026 153.9585 121.9815 153.7651 121.8868 C 153.4743 121.7444 153.4088 121.6539 153.3867 121.3643 C 153.3514 120.9002 153.7121 120.2946 154.8171 118.9627 C 156.0827 117.4373 158.9864 113.6917 159.351 113.1143 C 159.6964 112.5674 159.7659 112.0189 159.5028 111.9178 C 159.4144 111.8839 158.5257 111.8271 157.5278 111.7917 C 155.7825 111.7298 155.7048 111.7182 155.4884 111.4873 C 155.1839 111.1625 155.2002 110.6983 155.5384 110.0652 C 155.8599 109.4633 158.1665 106.4872 158.7635 105.9041 C 159.1617 105.5152 159.1908 105.5046 159.7918 105.5306 C 160.8775 105.5777 162.8678 106.1274 164.9637 106.959 C 170.5086 109.159 175.3203 112.8928 178.1911 117.2231 C 179.8422 119.7137 180.9893 122.359 181.5489 124.9667 C 182.1465 127.7512 182.109 132.0493 181.4583 135.3736 C 180.4048 140.7549 177.8374 147.383 175.4431 150.9026 C 174.8124 151.8298 174.3556 152.3592 173.4683 153.1917 C 172.8334 153.7874 172.1115 154.4194 171.8639 154.5963 C 171.6164 154.7731 171.0641 155.2081 170.6366 155.563 C 170.2091 155.918 169.6466 156.2888 169.3866 156.3872 L 168.9139 156.5661 L 168.8395 157.6025 C 168.6938 159.6328 168.5569 160.5313 168.2562 161.431 C 167.877 162.5656 167.3249 163.4584 166.2081 164.7429 C 164.5903 166.6036 163.9653 167.5938 163.9659 168.2953 C 163.9661 168.4879 164.0828 169.0057 164.2254 169.446 C 165.0032 171.8487 164.1073 174.2573 161.8636 175.7953 C 159.9851 177.083 159.8364 177.0335 156.2429 173.9236 C 156.083 173.7852 156.0762 173.8712 156.1327 175.3187 C 156.1972 176.9731 156.1246 177.5188 155.7151 178.4534 C 155.4495 179.0597 154.6699 179.7919 153.8174 180.2358 C 153.2797 180.5157 153.12 180.5504 152.3633 180.5518 C 151.6187 180.5532 151.4564 180.5199 151.0549 180.2837 C 150.2557 179.8136 149.6231 178.9943 149.0454 177.6812 C 148.8687 177.2796 148.6252 176.8012 148.5043 176.6182 L 148.2845 176.2855 L 148.0735 176.9184 C 147.9574 177.2665 147.6127 178.0055 147.3075 178.5605 C 146.7049 179.6565 146.1848 180.1632 145.3659 180.4523 C 144.7951 180.6538 143.8327 180.6382 143.193 180.4171 Z M 151.3916 161.928 C 151.6785 161.7832 151.9441 161.6164 151.9817 161.5575 C 152.0194 161.4985 152.172 161.0059 152.3209 160.4627 C 152.6479 159.2697 152.6203 158.6237 152.1696 156.9188 C 151.7528 155.3421 151.2811 154.508 150.1247 153.3025 C 149.2472 152.3875 148.4802 152.13 147.5517 152.4386 C 146.7563 152.703 145.6429 153.8555 145.0903 154.9865 C 144.3937 156.4121 144.0888 158.1603 144.2657 159.713 C 144.382 160.7333 144.516 161.1445 144.8856 161.6159 C 145.1672 161.9749 145.2057 161.9911 145.7788 161.9911 C 146.3518 161.9911 146.4077 161.9677 147.0705 161.4487 C 148.1805 160.5796 148.4202 160.5994 149.3282 161.6354 C 149.8011 162.1748 149.8265 162.1888 150.3416 162.19 C 150.7152 162.1909 151.0227 162.1142 151.3916 161.928 Z M 134.1627 149.8826 C 138.6964 149.4982 143.0882 148.9663 144.0853 148.6809 C 144.4183 148.5856 144.4949 148.4957 144.8098 147.8319 C 146.0493 145.2183 146.577 142.9712 146.1084 142.3018 C 145.7957 141.855 144.409 141.6592 139.2128 141.3279 C 135.5943 141.0972 134.871 140.9647 132.3366 140.0688 C 130.4295 139.3946 129.524 139.1842 128.2096 139.11 C 125.8367 138.976 124.2568 139.6184 123.5684 140.9969 C 122.9956 142.1437 123.1675 143.1638 124.1929 144.7033 C 125.6021 146.8192 128.1695 149.1142 129.9451 149.8449 C 130.6564 150.1377 131.1071 150.1417 134.1627 149.8826 Z M 164.9704 149.683 C 166.7056 149.5387 167.6285 149.3932 168.225 149.1699 C 169.2172 148.7984 171.5425 146.5809 172.6899 144.912 C 173.6463 143.5209 173.9849 142.1853 173.6222 141.235 C 173.1177 139.9131 170.9597 138.9904 168.6225 139.0974 C 167.7175 139.1388 167.4289 139.2059 165.8137 139.7509 C 163.0362 140.6882 161.2789 140.9998 156.6635 141.373 C 152.4581 141.713 150.9644 141.9016 150.5883 142.1401 C 150.3859 142.2684 150.3633 142.3624 150.3633 143.0744 C 150.3633 144.3328 150.7718 145.9917 151.3829 147.2148 C 152.0406 148.5308 153.0539 149.2114 154.6134 149.3842 C 155.1084 149.439 155.9184 149.5342 156.4135 149.5958 C 158.769 149.8887 162.09 149.9226 164.9704 149.683 Z" fill-rule="evenodd" fill="#CFFF04" fill-opacity="1" stroke="#EEFF01" stroke-opacity="1" stroke-width="0.1" stroke-linecap="round" stroke-linejoin="round"/>
<path d="M 180.3403 242.1802 C 179.5154 243.1759 176.3548 240.4423 175.1076 239.1782 C 172.2954 236.3277 175.1712 239.2426 172.2445 236.2761 C 170.8121 234.8242 171.0787 234.8743 170.7635 234.8751 C 170.5212 234.8757 170.4536 235.2604 169.875 234.7751 C 169.8616 234.7639 169.9536 234.7202 169.1839 234.0746 C 168.3663 233.3887 167.1384 231.9585 166.3207 231.2726 C 166.161 231.1387 158.1007 223.0411 158.0275 222.9668 C 157.991 222.9299 154.016 218.8008 153.9796 218.7639 C 152.0168 216.7745 154.0993 218.8853 151.9062 216.6624 C 151.7533 216.5074 149.944 214.7669 149.9316 214.5609 L 149.9316 214.4609 C 149.9501 214.1489 151.2413 212.8666 151.281 212.8264 C 151.4847 212.6199 152.6008 211.4429 152.7619 211.4254 L 152.8606 211.4254 C 152.9563 211.4256 154.7721 213.1626 155.4934 213.8938 C 156.3491 214.761 157.2047 215.6283 158.0604 216.4956 C 163.3483 221.8554 158.2802 216.6851 163.1614 221.6326 C 164.8955 223.3902 166.6068 225.1248 168.2953 226.8362 C 169.151 227.7035 170.0066 228.5707 170.8622 229.438 C 171.1535 229.7332 173.2629 231.9139 173.2647 232.1066 C 173.2681 232.4811 172.6417 232.3262 173.3305 233.0405 C 174.6643 234.4236 174.7983 234.5283 174.8114 234.5416 C 177.1815 236.9439 176.0947 235.9423 176.9835 236.8432 C 178.2591 238.1361 181.1256 241.2324 180.3403 242.1802 Z" fill-rule="evenodd" fill="#CFFF04" fill-opacity="1" stroke="#EEFF01" stroke-opacity="1" stroke-width="0.1" stroke-linecap="round" stroke-linejoin="round"/>
<path d="M 144.4127 202.1285 C 145.7742 202.9627 146.9042 202.8768 147.5833 202.8623 C 149.2358 202.8269 149.9438 201.696 150.4395 202.7009 C 150.6035 203.0334 150.9787 202.5729 145.9141 207.9419 C 141.1265 213.0172 141.1135 212.8345 140.7862 212.6613 C 140.137 212.318 140.6298 211.3303 140.6585 211.2612 C 141.142 210.0935 140.936 208.327 140.682 207.6531 C 140.174 206.3051 138.0725 204.1295 138.0444 204.1021 C 137.246 203.3242 132.2456 197.9922 132.096 197.8162 C 131.9464 197.6402 126.5714 192.0288 126.1476 191.5302 C 126.0977 191.4715 120.2988 185.3616 120.1991 185.2442 C 119.3951 184.2982 117.2013 182.1314 117.1756 182.1023 C 116.5971 181.4469 117.2956 182.121 116.1671 181.0216 C 116.1581 181.0128 115.6033 180.276 115.2571 179.9388 C 114.3401 179.0454 114.2589 178.9676 114.2507 178.9583 C 114.244 178.9507 113.8738 178.3948 113.542 178.0716 C 113.2394 177.7767 112.8562 177.3274 112.8354 177.2851 C 112.4964 176.5937 113.1397 177.264 111.7095 175.305 C 110.4129 173.5289 109.9396 173.0944 108.4952 172.4677 C 106.8645 171.7603 102.9377 171.3388 100.1087 175.3864 C 99.03229 176.9266 97.59717 180.51 100.9862 184.3864 C 101.4272 184.8909 106.6545 190.3013 107.1338 190.7683 C 107.9732 191.5861 112.8444 196.672 113.1829 197.1523 C 115.8503 200.9368 114.5966 205.5785 112.221 207.795 C 109.4406 210.3893 107.8862 210.4059 107.6093 210.4659 C 105.9943 210.8156 105.0189 210.4777 104.3526 210.3352 C 103.5933 210.1728 101.927 209.3717 101.9621 209.1839 C 101.9803 209.0867 102.9525 208.3615 102.9639 208.3607 C 103.071 208.3541 104.2117 209.2025 105.8731 209.1669 C 106.5524 209.1524 108.238 209.3292 110.1848 207.8721 C 111.6325 206.7885 114.1627 204.2183 113.1112 200.0265 C 112.8059 198.8092 112.457 197.9171 108.1484 193.7194 C 108.1314 193.7028 106.4943 191.9117 106.3326 191.7542 C 103.2862 188.7862 102.8377 188.1529 102.7052 188.0239 C 101.1563 186.5148 99.40553 184.6455 99.07372 184.0934 C 97.17839 180.9393 96.34109 177.3671 100.1321 173.3483 C 101.4847 171.9145 104.2234 169.802 108.1032 171.0064 C 108.138 171.0172 109.6144 171.3419 111.7574 172.8655 C 114.6024 174.8883 112.826 173.9889 115.0578 175.0996 C 116.1646 175.6505 127.607 186.7388 129.7352 188.6141 C 131.797 190.4308 143.3573 201.4819 144.4127 202.1285 Z" fill-rule="evenodd" fill="#CFFF04" fill-opacity="1" stroke="#CFFF04" stroke-opacity="1" stroke-width="0.1" stroke-linecap="round" stroke-linejoin="round"/>
<path d="M 66.5804 237.1063 C 66.5804 237.6279 66.15664 238.0517 65.63498 238.0517 C 65.11332 238.0517 64.68958 237.6279 64.68958 237.1063 C 64.68958 236.5846 65.11332 236.1609 65.63498 236.1609 C 66.15664 236.1609 66.5804 236.5846 66.5804 237.1063 Z" fill-rule="evenodd" fill="#CFFF04" fill-opacity="1" stroke="#CFFF04" stroke-opacity="1" stroke-width="0.8819444" stroke-linecap="round" stroke-linejoin="round"/>
<path d="M 66.74237 241.0294 C 68.69183 241.0294 70.27539 238.1718 70.27539 234.6538 L 70.27541 206.399 C 70.27541 202.881 68.69186 200.0234 66.74239 200.0234 L 41.7461 200.0234 C 39.79664 200.0234 38.21308 202.881 38.21308 206.399 L 38.21309 234.6538 C 38.21309 238.1718 39.79664 241.0294 41.7461 241.0294 L 66.74237 241.0294 Z" fill-rule="evenodd" fill="none" fill-opacity="1" stroke="#CFFF04" stroke-opacity="1" stroke-width="1.763889" stroke-linecap="round" stroke-linejoin="round"/>
<path d="M 63.221 213.3257 C 64.62119 213.3257 65.75859 212.7195 65.75859 211.9733 L 65.75859 205.9798 C 65.75859 205.2335 64.62121 204.6273 63.221 204.6273 L 45.26737 204.6273 C 43.86717 204.6273 42.72978 205.2335 42.72978 205.9798 L 42.72978 211.9733 C 42.72978 212.7195 43.86716 213.3257 45.26737 213.3257 L 63.221 213.3257 Z" fill-rule="evenodd" fill="none" fill-opacity="1" stroke="#CFFF04" stroke-opacity="1" stroke-width="0.8819444" stroke-linecap="round" stroke-linejoin="round"/>
<path d="M 61.35403 224.9713 C 61.35403 228.8944 58.16732 232.0811 54.24426 232.0811 C 50.32119 232.0811 47.13449 228.8944 47.13449 224.9713 C 47.13449 221.0483 50.32117 217.8616 54.24424 217.8616 C 58.1673 217.8616 61.35403 221.0483 61.35403 224.9713 Z" fill-rule="evenodd" fill="none" fill-opacity="1" stroke="#CFFF04" stroke-opacity="1" stroke-width="0.8819444" stroke-linecap="round" stroke-linejoin="round"/>
<path d="M 52.46952 218.231 C 53.81472 218.0282 55.18331 218.0359 56.52615 218.2537 L 54.42537 231.2043 L 52.46952 218.231 Z" fill-rule="evenodd" fill="#CFFF04" fill-opacity="1" stroke="#CFFF04" stroke-opacity="1" stroke-width="0.8819444" stroke-linecap="round" stroke-linejoin="round"/>
<path d="M 52.01606 235.982 C 52.07661 235.8656 52.3884 235.7305 52.59664 235.7305 C 52.82988 235.7305 53.09981 235.9608 53.09981 236.1597 C 53.09981 236.4216 52.55032 236.6235 52.25279 236.471 C 52.06209 236.3733 51.94182 236.1248 52.01606 235.982 Z M 53.42675 235.3721 C 53.50681 235.3064 53.59288 235.2527 53.618 235.2527 C 53.69289 235.2527 53.96001 235.4806 54.06683 235.6356 C 54.12156 235.715 54.18652 235.8594 54.21119 235.9565 C 54.29463 236.2847 54.12947 236.6585 53.7936 236.9015 C 53.70862 236.9629 53.6239 237.0132 53.60532 237.0132 C 53.58674 237.0132 53.50258 236.9553 53.4183 236.8846 C 53.27496 236.7642 53.2684 236.7522 53.31659 236.6983 C 53.58297 236.4007 53.58236 236.4018 53.59549 236.2015 C 53.61282 235.9371 53.58662 235.8598 53.42059 235.685 C 53.34254 235.6028 53.27924 235.5257 53.27993 235.5136 C 53.28062 235.5015 53.34668 235.4378 53.42675 235.3721 Z M 54.2416 234.7954 L 54.41749 234.6616 L 54.54917 234.7497 C 54.83231 234.9389 55.09884 235.2464 55.24675 235.5545 C 55.35915 235.7886 55.38585 236.279 55.301 236.5511 C 55.19357 236.8955 54.87436 237.3007 54.53067 237.5288 L 54.41699 237.6042 L 54.25924 237.4824 C 54.17248 237.4153 54.10149 237.338 54.10149 237.3104 C 54.10149 237.2828 54.17475 237.2019 54.26428 237.1305 C 54.65875 236.8159 54.87862 236.3073 54.7866 235.9223 C 54.70867 235.5962 54.51619 235.3266 54.15755 235.0412 C 54.10704 235.001 54.06572 234.9594 54.06572 234.9487 C 54.06572 234.938 54.14486 234.869 54.2416 234.7954 Z M 55.07196 234.2083 C 55.15316 234.1464 55.23227 234.0957 55.24774 234.0957 C 55.28947 234.0957 55.71843 234.4645 55.86205 234.6239 C 56.21709 235.0178 56.32602 235.22 56.44481 235.7054 C 56.5125 235.982 56.51186 236.2252 56.44262 236.5294 C 56.31381 237.0952 56.0009 237.5403 55.3953 238.0193 L 55.25219 238.1324 L 55.08825 238.0203 C 54.99808 237.9586 54.9243 237.8927 54.9243 237.8737 C 54.9243 237.8434 55.14872 237.6274 55.21837 237.5907 C 55.28667 237.5546 55.61373 237.1369 55.70707 236.9665 C 56.00166 236.4286 56.00205 235.8128 55.70813 235.2762 C 55.55797 235.002 55.28978 234.6993 54.98691 234.4622 C 54.89162 234.3876 54.91039 234.3316 55.07196 234.2083 Z" fill-rule="evenodd" fill="#CFFF04" fill-opacity="1" stroke="#CFFF04" stroke-opacity="1" stroke-width="0.1" stroke-linecap="round" stroke-linejoin="round"/>
<path d="M 89.63882 223.8531 C 89.62415 224.8315 89.73508 225.6281 89.88632 225.6304 L 91.10098 225.6486 C 91.25222 225.6509 91.38701 224.858 91.40167 223.8795 L 91.58974 211.3343 C 91.6044 210.3559 91.49348 209.5593 91.34224 209.557 L 90.12758 209.5388 C 89.97634 209.5366 89.84159 210.3295 89.82692 211.3079 L 89.63882 223.8531 Z" fill-rule="evenodd" fill="#CFFF04" fill-opacity="1" stroke="#CFFF04" stroke-opacity="1" stroke-width="0.8819444" stroke-linecap="round" stroke-linejoin="round"/>
<path d="M 94.68246 223.8531 C 94.66779 224.8315 94.77872 225.6281 94.92996 225.6304 L 96.14462 225.6486 C 96.29586 225.6509 96.43061 224.8579 96.44528 223.8795 L 96.63338 211.3343 C 96.64803 210.3559 96.53711 209.5593 96.38588 209.557 L 95.1712 209.5388 C 95.01997 209.5366 94.8852 210.3295 94.87053 211.3079 L 94.68246 223.8531 Z" fill-rule="evenodd" fill="#CFFF04" fill-opacity="1" stroke="#CFFF04" stroke-opacity="1" stroke-width="0.8819444" stroke-linecap="round" stroke-linejoin="round"/>
<path d="M 90.65625 205.4192 L 90.65625 210.7747" fill-rule="evenodd" fill="none" fill-opacity="1" stroke="#CFFF04" stroke-opacity="1" stroke-width="0.8819444" stroke-linecap="round" stroke-linejoin="round"/>
<path d="M 95.73438 205.4192 L 95.73438 210.7747" fill-rule="evenodd" fill="none" fill-opacity="1" stroke="#CFFF04" stroke-opacity="1" stroke-width="0.8819444" stroke-linecap="round" stroke-linejoin="round"/>
<path d="M 66.5804 232.6434 C 66.5804 233.1651 66.15666 233.5888 65.63499 233.5888 C 65.11333 233.5888 64.68959 233.1651 64.68959 232.6434 C 64.68959 232.1217 65.11333 231.698 65.63499 231.698 C 66.15666 231.698 66.5804 232.1217 66.5804 232.6434 Z" fill-rule="evenodd" fill="#CFFF04" fill-opacity="1" stroke="#CFFF04" stroke-opacity="1" stroke-width="0.8819444" stroke-linecap="round" stroke-linejoin="round"/>
<path d="M 66.20773 232.8086 C 75.87035 233.2497 82.81223 232.8528 87.03337 231.618 C 90.62587 230.5671 90.49597 225.6758 90.49597 225.6758" fill-rule="evenodd" fill="none" fill-opacity="1" stroke="#CFFF04" stroke-opacity="1" stroke-width="0.8819444" stroke-linecap="round" stroke-linejoin="round"/>
<path d="M 66.38782 237.2529 C 77.96421 237.9744 86.28099 237.3254 91.33818 235.306 C 95.6422 233.5874 95.48657 225.5885 95.48657 225.5885" fill-rule="evenodd" fill="none" fill-opacity="1" stroke="#CFFF04" stroke-opacity="1" stroke-width="0.8819444" stroke-linecap="round" stroke-linejoin="round"/>
<path d="M 261.4223 147.5514 C 264.9879 147.5514 267.8843 144.6551 267.8843 141.0895 L 267.8843 112.4522 C 267.8843 108.8866 264.9879 105.9903 261.4223 105.9903 L 215.7034 105.9903 C 212.1378 105.9903 209.2415 108.8866 209.2415 112.4522 L 209.2415 141.0895 C 209.2415 144.6551 212.1378 147.5514 215.7034 147.5514 L 261.4223 147.5514 Z" fill-rule="evenodd" fill="none" fill-opacity="1" stroke="#CFFF04" stroke-opacity="1" stroke-width="1.763889" stroke-linecap="round" stroke-linejoin="round"/>
<g>
<path d="M 218.5576 136.5867 L 218.5576 138.2457 C 218.5576 138.4327 218.4922 138.5943 218.3613 138.7305 C 218.2304 138.8668 218.0714 138.9349 217.8844 138.9349 C 217.6974 138.9349 217.5385 138.8668 217.4076 138.7305 C 217.2767 138.5943 217.2112 138.4327 217.2112 138.2457 L 217.2112 136.5867 L 216.522 136.5867 C 216.335 136.5867 216.176 136.5213 216.0452 136.3904 C 215.9142 136.2594 215.8488 136.1005 215.8488 135.9135 C 215.8488 135.7319 215.9142 135.5742 216.0452 135.4407 C 216.176 135.3071 216.335 135.2403 216.522 135.2403 L 217.1952 135.2403 L 217.1952 133.7016 L 216.522 133.7016 C 216.335 133.7016 216.176 133.6361 216.0452 133.5052 C 215.9142 133.3743 215.8488 133.2154 215.8488 133.0284 C 215.8488 132.836 215.9142 132.6757 216.0452 132.5475 C 216.176 132.4193 216.335 132.3551 216.522 132.3551 L 217.2112 132.3551 L 217.2112 130.6962 C 217.2112 130.5092 217.2767 130.3502 217.4076 130.2193 C 217.5385 130.0884 217.6974 130.023 217.8844 130.023 C 218.0661 130.023 218.2237 130.0898 218.3573 130.2233 C 218.4908 130.3569 218.5576 130.5145 218.5576 130.6962 L 218.5576 132.3551 L 219.904 132.3551 L 219.904 130.6962 C 219.904 130.5092 219.9708 130.3502 220.1044 130.2193 C 220.238 130.0884 220.3956 130.023 220.5773 130.023 C 220.7643 130.023 220.9259 130.0898 221.0621 130.2233 C 221.1984 130.3569 221.2665 130.5145 221.2665 130.6962 L 221.2665 132.3551 L 221.9557 132.3551 C 222.1374 132.3551 222.295 132.4206 222.4286 132.5515 C 222.5621 132.6824 222.6289 132.8414 222.6289 133.0284 C 222.6289 133.2207 222.5568 133.3837 222.4125 133.5172 C 222.2683 133.6508 222.116 133.7176 221.9557 133.7176 L 221.2825 133.7176 L 221.2825 135.2403 L 221.9557 135.2403 C 222.132 135.2403 222.2883 135.3071 222.4246 135.4407 C 222.5608 135.5742 222.6289 135.7319 222.6289 135.9135 C 222.6289 136.0898 222.5661 136.2461 222.4406 136.3824 C 222.315 136.5186 222.1534 136.5867 221.9557 136.5867 L 221.2665 136.5867 L 221.2665 138.2457 C 221.2665 138.4327 221.1984 138.5943 221.0621 138.7305 C 220.9259 138.8668 220.7643 138.9349 220.5773 138.9349 C 220.3956 138.9349 220.238 138.8668 220.1044 138.7305 C 219.9708 138.5943 219.904 138.4327 219.904 138.2457 L 219.904 136.5867 L 218.5576 136.5867 Z M 218.5576 133.7176 L 218.5576 135.2403 L 219.904 135.2403 L 219.904 133.7176 L 218.5576 133.7176 Z" fill-rule="evenodd" fill="#CFFF04" fill-opacity="1" stroke="#CFFF04" stroke-opacity="1" stroke-width="0.1" stroke-linecap="round" stroke-linejoin="round"/>
<path d="M 231.256 135.08 L 231.256 135.601 C 231.256 135.8734 231.1251 136.0872 230.8633 136.2421 L 225.5578 139.3757 C 225.4028 139.4719 225.2559 139.52 225.117 139.52 C 224.946 139.52 224.7924 139.4558 224.6562 139.3276 C 224.5199 139.1994 224.4518 139.0364 224.4518 138.8387 C 224.4518 138.5823 224.5533 138.3953 224.7563 138.2777 L 229.7092 135.3365 L 224.7563 132.4193 C 224.5533 132.291 224.4518 132.0987 224.4518 131.8422 C 224.4518 131.6445 224.5199 131.4816 224.6562 131.3534 C 224.7924 131.2251 224.946 131.161 225.117 131.161 C 225.2506 131.161 225.3975 131.2091 225.5578 131.3053 L 230.8633 134.4389 C 231.1251 134.5939 231.256 134.8076 231.256 135.08 Z" fill-rule="evenodd" fill="#CFFF04" fill-opacity="1" stroke="#CFFF04" stroke-opacity="1" stroke-width="0.1" stroke-linecap="round" stroke-linejoin="round"/>
</g>
<path d="M 89.17143 147.6113 C 92.74217 147.6113 95.64272 144.7108 95.64272 141.14 L 95.64272 112.4615 C 95.64272 108.8908 92.74217 105.9902 89.17143 105.9902 L 43.38686 105.9902 C 39.81612 105.9902 36.91559 108.8908 36.91559 112.4615 L 36.9156 141.14 C 36.9156 144.7108 39.81612 147.6113 43.38686 147.6113 L 89.17143 147.6113 Z" fill-rule="evenodd" fill="none" fill-opacity="1" stroke="#CFFF04" stroke-opacity="1" stroke-width="1.763889" stroke-linecap="round" stroke-linejoin="round"/>
<g>
<path d="M 44.69867 111.5775 L 44.69868 141.4948 L 64.25352 141.4948 L 64.25352 111.5775 L 44.69867 111.5775 Z" fill-rule="evenodd" fill="none" fill-opacity="1" stroke="#CFFF04" stroke-opacity="1" stroke-width="0.8819444" stroke-linecap="round" stroke-linejoin="round"/>
<path d="M 57.48452 111.5775 C 57.48452 112.3754 57.16756 113.1406 56.60338 113.7048 C 56.03919 114.269 55.27399 114.5859 54.47611 114.5859 C 53.67821 114.5859 52.913 114.269 52.34882 113.7048 C 51.78463 113.1406 51.46767 112.3754 51.46767 111.5775 L 54.47611 111.5775 L 57.48452 111.5775 Z" fill-rule="evenodd" fill="#CFFF04" fill-opacity="1" stroke="#CFFF04" stroke-opacity="1" stroke-width="0.8819444" stroke-linecap="round" stroke-linejoin="round"/>
<path d="M 42.7808 112.6979 L 42.7808 117.3777 L 44.67813 117.3777 L 44.67813 112.6979 L 42.7808 112.6979 Z" fill-rule="evenodd" fill="none" fill-opacity="1" stroke="#CFFF04" stroke-opacity="1" stroke-width="0.8819444" stroke-linecap="round" stroke-linejoin="round"/>
<path d="M 42.78269 120.3453 L 42.78269 125.0251 L 44.68004 125.0251 L 44.68003 120.3453 L 42.78269 120.3453 Z" fill-rule="evenodd" fill="none" fill-opacity="1" stroke="#CFFF04" stroke-opacity="1" stroke-width="0.8819444" stroke-linecap="round" stroke-linejoin="round"/>
<path d="M 42.7846 127.9928 L 42.7846 132.6726 L 44.68195 132.6726 L 44.68195 127.9928 L 42.7846 127.9928 Z" fill-rule="evenodd" fill="none" fill-opacity="1" stroke="#CFFF04" stroke-opacity="1" stroke-width="0.8819444" stroke-linecap="round" stroke-linejoin="round"/>
<path d="M 42.78082 135.6402 L 42.78082 140.32 L 44.67817 140.32 L 44.67817 135.6402 L 42.78082 135.6402 Z" fill-rule="evenodd" fill="none" fill-opacity="1" stroke="#CFFF04" stroke-opacity="1" stroke-width="0.8819444" stroke-linecap="round" stroke-linejoin="round"/>
<path d="M 64.24501 112.725 L 64.24501 117.4048 L 66.14236 117.4048 L 66.14236 112.725 L 64.24501 112.725 Z" fill-rule="evenodd" fill="none" fill-opacity="1" stroke="#CFFF04" stroke-opacity="1" stroke-width="0.8819444" stroke-linecap="round" stroke-linejoin="round"/>
<path d="M 64.24681 120.3725 L 64.24683 125.0523 L 66.14418 125.0523 L 66.14418 120.3725 L 64.24681 120.3725 Z" fill-rule="evenodd" fill="none" fill-opacity="1" stroke="#CFFF04" stroke-opacity="1" stroke-width="0.8819444" stroke-linecap="round" stroke-linejoin="round"/>
<path d="M 64.24884 128.0199 L 64.24884 132.6997 L 66.14619 132.6997 L 66.14619 128.0199 L 64.24884 128.0199 Z" fill-rule="evenodd" fill="none" fill-opacity="1" stroke="#CFFF04" stroke-opacity="1" stroke-width="0.8819444" stroke-linecap="round" stroke-linejoin="round"/>
<path d="M 64.24495 135.6674 L 64.24495 140.3472 L 66.14235 140.3472 L 66.14235 135.6674 L 64.24495 135.6674 Z" fill-rule="evenodd" fill="none" fill-opacity="1" stroke="#CFFF04" stroke-opacity="1" stroke-width="0.8819444" stroke-linecap="round" stroke-linejoin="round"/>
</g>
<g>
<path d="M 70.23955 118.3174 L 70.23955 112.9401 C 70.23955 112.7046 70.32516 112.5013 70.49638 112.3301 C 70.6676 112.1589 70.87093 112.0733 71.10635 112.0733 L 73.91005 112.0733 C 74.14191 112.0733 74.34256 112.1589 74.51199 112.3301 C 74.68143 112.5013 74.76614 112.7046 74.76614 112.9401 L 74.76614 118.3174 C 74.76614 118.5564 74.68143 118.7606 74.51199 118.9301 C 74.34256 119.0995 74.13834 119.1842 73.89935 119.1842 L 71.10635 119.1842 C 70.86379 119.1842 70.65868 119.0995 70.49103 118.9301 C 70.32338 118.7606 70.23955 118.5564 70.23955 118.3174 Z M 73.87794 118.2853 L 73.87796 112.9829 L 71.13846 112.9829 L 71.13846 118.2853 L 73.87794 118.2853 Z" fill-rule="evenodd" fill="#CFFF04" fill-opacity="1" stroke="#CFFF04" stroke-opacity="1" stroke-width="0.1" stroke-linecap="round" stroke-linejoin="round"/>
<path d="M 76.18993 118.2853 L 77.57037 118.2853 L 77.57037 112.9829 L 76.21132 112.9829 C 76.08647 112.9829 75.98035 112.9392 75.89296 112.8518 C 75.80556 112.7644 75.76186 112.6583 75.76187 112.5335 C 75.76187 112.4086 75.80557 112.3025 75.89296 112.2151 C 75.98035 112.1277 76.08647 112.084 76.21132 112.084 L 78.46927 112.084 L 78.46927 118.2853 L 79.36816 118.2853 L 79.36816 116.4126 C 79.36816 116.2914 79.41187 116.1861 79.49925 116.0969 C 79.58665 116.0078 79.69276 115.9632 79.81761 115.9632 C 79.94246 115.9632 80.04858 116.0069 80.13597 116.0943 C 80.22337 116.1817 80.26707 116.2878 80.26706 116.4126 L 80.26706 118.7348 C 80.26706 118.8596 80.22336 118.9658 80.13597 119.0532 C 80.04858 119.1406 79.94246 119.1842 79.81761 119.1842 L 76.18993 119.1842 C 76.06508 119.1842 75.95896 119.1388 75.87157 119.0478 C 75.78417 118.9568 75.74048 118.8489 75.74048 118.7241 C 75.74048 118.6028 75.78417 118.4994 75.87157 118.4137 C 75.95896 118.3281 76.06508 118.2853 76.18993 118.2853 Z" fill-rule="evenodd" fill="#CFFF04" fill-opacity="1" stroke="#CFFF04" stroke-opacity="1" stroke-width="0.1" stroke-linecap="round" stroke-linejoin="round"/>
<path d="M 80.82945 118.3174 L 80.82945 112.9401 C 80.82945 112.7046 80.91505 112.5013 81.08627 112.3301 C 81.25749 112.1589 81.46081 112.0733 81.69623 112.0733 L 84.49995 112.0733 C 84.73181 112.0733 84.93245 112.1589 85.10188 112.3301 C 85.27132 112.5013 85.35605 112.7046 85.35605 112.9401 L 85.35605 118.3174 C 85.35605 118.5564 85.27132 118.7606 85.10188 118.9301 C 84.93245 119.0995 84.72823 119.1842 84.48924 119.1842 L 81.69623 119.1842 C 81.45367 119.1842 81.24857 119.0995 81.08092 118.9301 C 80.91327 118.7606 80.82945 118.5564 80.82945 118.3174 Z M 84.46783 118.2853 L 84.46783 112.9829 L 81.72835 112.9829 L 81.72835 118.2853 L 84.46783 118.2853 Z" fill-rule="evenodd" fill="#CFFF04" fill-opacity="1" stroke="#CFFF04" stroke-opacity="1" stroke-width="0.1" stroke-linecap="round" stroke-linejoin="round"/>
<path d="M 86.56313 118.2853 L 87.94359 118.2853 L 87.94359 112.9829 L 86.58452 112.9829 C 86.45967 112.9829 86.35355 112.9392 86.26616 112.8518 C 86.17876 112.7644 86.13508 112.6583 86.13509 112.5334 C 86.13509 112.4086 86.17877 112.3025 86.26616 112.2151 C 86.35355 112.1277 86.45967 112.084 86.58452 112.084 L 88.84247 112.084 L 88.84247 118.2853 L 89.74138 118.2853 L 89.74138 116.4126 C 89.74138 116.2913 89.78507 116.1861 89.87247 116.0969 C 89.95986 116.0078 90.06598 115.9632 90.19083 115.9632 C 90.31567 115.9632 90.42179 116.0069 90.50919 116.0943 C 90.59658 116.1816 90.64028 116.2878 90.64027 116.4126 L 90.64027 118.7348 C 90.64027 118.8596 90.59657 118.9658 90.50919 119.0532 C 90.42179 119.1405 90.31567 119.1842 90.19083 119.1842 L 86.56313 119.1842 C 86.43828 119.1842 86.33216 119.1388 86.24477 119.0478 C 86.15737 118.9568 86.11369 118.8489 86.11368 118.7241 C 86.11368 118.6028 86.15737 118.4994 86.24477 118.4137 C 86.33216 118.3281 86.43828 118.2853 86.56313 118.2853 Z" fill-rule="evenodd" fill="#CFFF04" fill-opacity="1" stroke="#CFFF04" stroke-opacity="1" stroke-width="0.1" stroke-linecap="round" stroke-linejoin="round"/>
<path d="M 70.6783 129.6232 L 72.05875 129.6232 L 72.05875 124.3208 L 70.69969 124.3208 C 70.57484 124.3208 70.46873 124.2771 70.38135 124.1897 C 70.29395 124.1023 70.25026 123.9962 70.25026 123.8713 C 70.25026 123.7465 70.29395 123.6404 70.38135 123.553 C 70.46874 123.4656 70.57485 123.4219 70.69969 123.4219 L 72.95766 123.4219 L 72.95766 129.6232 L 73.85655 129.6232 L 73.85655 127.7505 C 73.85655 127.6292 73.90025 127.524 73.98764 127.4348 C 74.07504 127.3456 74.18116 127.3011 74.306 127.3011 C 74.43085 127.3011 74.53696 127.3447 74.62436 127.4321 C 74.71175 127.5195 74.75545 127.6257 74.75545 127.7505 L 74.75545 130.0726 C 74.75545 130.1975 74.71175 130.3036 74.62436 130.391 C 74.53696 130.4784 74.43085 130.5221 74.306 130.5221 L 70.6783 130.5221 C 70.55345 130.5221 70.44733 130.4766 70.35994 130.3857 C 70.27254 130.2947 70.22885 130.1868 70.22885 130.0619 C 70.22885 129.9406 70.27254 129.8372 70.35994 129.7516 C 70.44733 129.666 70.55345 129.6232 70.6783 129.6232 Z" fill-rule="evenodd" fill="#CFFF04" fill-opacity="1" stroke="#CFFF04" stroke-opacity="1" stroke-width="0.1" stroke-linecap="round" stroke-linejoin="round"/>
<path d="M 75.53452 129.6553 L 75.53452 124.278 C 75.53452 124.0426 75.62012 123.8392 75.79134 123.668 C 75.96255 123.4968 76.16588 123.4112 76.40131 123.4112 L 79.205 123.4112 C 79.43686 123.4112 79.6375 123.4968 79.80695 123.668 C 79.97638 123.8392 80.06111 124.0426 80.06111 124.278 L 80.06111 129.6553 C 80.06111 129.8943 79.97639 130.0985 79.80695 130.2679 C 79.6375 130.4374 79.4333 130.5221 79.19432 130.5221 L 76.40131 130.5221 C 76.15874 130.5221 75.95364 130.4374 75.786 130.2679 C 75.61835 130.0985 75.53452 129.8943 75.53452 129.6553 Z M 79.17291 129.6232 L 79.17291 124.3208 L 76.43341 124.3208 L 76.43341 129.6232 L 79.17291 129.6232 Z" fill-rule="evenodd" fill="#CFFF04" fill-opacity="1" stroke="#CFFF04" stroke-opacity="1" stroke-width="0.1" stroke-linecap="round" stroke-linejoin="round"/>
<path d="M 80.82945 129.6553 L 80.82945 124.278 C 80.82945 124.0426 80.91507 123.8392 81.08629 123.668 C 81.25751 123.4968 81.46082 123.4112 81.69624 123.4112 L 84.49995 123.4112 C 84.73181 123.4112 84.93246 123.4968 85.1019 123.668 C 85.27134 123.8392 85.35605 124.0426 85.35605 124.278 L 85.35605 129.6553 C 85.35605 129.8943 85.27134 130.0985 85.1019 130.2679 C 84.93246 130.4374 84.72824 130.5221 84.48926 130.5221 L 81.69624 130.5221 C 81.45368 130.5221 81.24858 130.4374 81.08093 130.2679 C 80.91328 130.0985 80.82945 129.8943 80.82945 129.6553 Z M 84.46785 129.6232 L 84.46785 124.3208 L 81.72835 124.3208 L 81.72835 129.6232 L 84.46785 129.6232 Z" fill-rule="evenodd" fill="#CFFF04" fill-opacity="1" stroke="#CFFF04" stroke-opacity="1" stroke-width="0.1" stroke-linecap="round" stroke-linejoin="round"/>
<path d="M 86.56308 129.6232 L 87.94353 129.6232 L 87.94353 124.3208 L 86.58447 124.3208 C 86.45963 124.3208 86.35351 124.2771 86.26611 124.1897 C 86.17872 124.1023 86.13502 123.9962 86.13503 123.8713 C 86.13503 123.7465 86.17873 123.6404 86.26611 123.553 C 86.35351 123.4656 86.45963 123.4219 86.58447 123.4219 L 88.84242 123.4219 L 88.84242 129.6232 L 89.74133 129.6232 L 89.74133 127.7505 C 89.74133 127.6292 89.78501 127.524 89.87241 127.4348 C 89.9598 127.3456 90.06592 127.3011 90.19077 127.3011 C 90.31562 127.3011 90.42175 127.3447 90.50914 127.4321 C 90.59653 127.5195 90.64022 127.6257 90.64021 127.7505 L 90.64021 130.0726 C 90.64021 130.1975 90.59653 130.3036 90.50914 130.391 C 90.42175 130.4784 90.31562 130.5221 90.19077 130.5221 L 86.56308 130.5221 C 86.43823 130.5221 86.33212 130.4766 86.24472 130.3857 C 86.15733 130.2947 86.11362 130.1868 86.11362 130.062 C 86.11362 129.9407 86.15733 129.8372 86.24472 129.7516 C 86.33212 129.666 86.43823 129.6232 86.56308 129.6232 Z" fill-rule="evenodd" fill="#CFFF04" fill-opacity="1" stroke="#CFFF04" stroke-opacity="1" stroke-width="0.1" stroke-linecap="round" stroke-linejoin="round"/>
<path d="M 70.6783 140.9612 L 72.05875 140.9612 L 72.05875 135.6587 L 70.69969 135.6587 C 70.57484 135.6587 70.46873 135.615 70.38135 135.5276 C 70.29395 135.4402 70.25026 135.3341 70.25026 135.2093 C 70.25026 135.0844 70.29395 134.9783 70.38135 134.8909 C 70.46874 134.8035 70.57485 134.7598 70.69969 134.7598 L 72.95766 134.7598 L 72.95766 140.9612 L 73.85655 140.9612 L 73.85655 139.0884 C 73.85655 138.9672 73.90025 138.862 73.98764 138.7728 C 74.07504 138.6836 74.18116 138.639 74.306 138.639 C 74.43085 138.639 74.53696 138.6827 74.62436 138.7701 C 74.71175 138.8575 74.75545 138.9636 74.75545 139.0884 L 74.75545 141.4106 C 74.75545 141.5355 74.71175 141.6416 74.62436 141.729 C 74.53696 141.8164 74.43085 141.86 74.306 141.86 L 70.6783 141.86 C 70.55345 141.86 70.44733 141.8146 70.35994 141.7236 C 70.27254 141.6327 70.22885 141.5247 70.22885 141.3999 C 70.22885 141.2786 70.27254 141.1752 70.35994 141.0896 C 70.44733 141.004 70.55345 140.9612 70.6783 140.9612 Z" fill-rule="evenodd" fill="#CFFF04" fill-opacity="1" stroke="#CFFF04" stroke-opacity="1" stroke-width="0.1" stroke-linecap="round" stroke-linejoin="round"/>
<path d="M 75.53452 140.9932 L 75.53452 135.6158 C 75.53452 135.3804 75.62012 135.1771 75.79134 135.0059 C 75.96255 134.8347 76.16588 134.7491 76.40131 134.7491 L 79.205 134.7491 C 79.43686 134.7491 79.6375 134.8347 79.80695 135.0059 C 79.97638 135.1771 80.06111 135.3804 80.06111 135.6158 L 80.06111 140.9932 C 80.06111 141.2322 79.97639 141.4364 79.80695 141.6059 C 79.6375 141.7753 79.4333 141.86 79.19432 141.86 L 76.40131 141.86 C 76.15874 141.86 75.95364 141.7753 75.786 141.6059 C 75.61835 141.4364 75.53452 141.2322 75.53452 140.9932 Z M 79.17291 140.9611 L 79.17291 135.6587 L 76.43341 135.6587 L 76.43341 140.9611 L 79.17291 140.9611 Z" fill-rule="evenodd" fill="#CFFF04" fill-opacity="1" stroke="#CFFF04" stroke-opacity="1" stroke-width="0.1" stroke-linecap="round" stroke-linejoin="round"/>
<path d="M 81.2682 140.9611 L 82.64867 140.9611 L 82.64867 135.6587 L 81.2896 135.6587 C 81.16475 135.6587 81.05863 135.615 80.97124 135.5276 C 80.88384 135.4402 80.84016 135.3341 80.84016 135.2092 C 80.84016 135.0844 80.88385 134.9783 80.97124 134.8909 C 81.05863 134.8035 81.16475 134.7598 81.2896 134.7598 L 83.54756 134.7598 L 83.54756 140.9611 L 84.44646 140.9611 L 84.44646 139.0884 C 84.44646 138.9671 84.49015 138.8619 84.57755 138.7727 C 84.66493 138.6836 84.77106 138.639 84.8959 138.639 C 85.02075 138.639 85.12687 138.6827 85.21426 138.7701 C 85.30166 138.8575 85.34535 138.9636 85.34535 139.0884 L 85.34535 141.4106 C 85.34535 141.5354 85.30166 141.6415 85.21426 141.7289 C 85.12687 141.8163 85.02075 141.86 84.8959 141.86 L 81.2682 141.86 C 81.14336 141.86 81.03724 141.8146 80.94984 141.7236 C 80.86245 141.6326 80.81876 141.5247 80.81876 141.3999 C 80.81876 141.2786 80.86245 141.1751 80.94984 141.0895 C 81.03724 141.0039 81.14336 140.9611 81.2682 140.9611 Z" fill-rule="evenodd" fill="#CFFF04" fill-opacity="1" stroke="#CFFF04" stroke-opacity="1" stroke-width="0.1" stroke-linecap="round" stroke-linejoin="round"/>
<path d="M 86.12439 140.9932 L 86.12439 135.6158 C 86.12439 135.3804 86.20999 135.1771 86.38121 135.0059 C 86.55243 134.8347 86.75574 134.7491 86.99117 134.7491 L 89.79488 134.7491 C 90.02674 134.7491 90.22739 134.8347 90.39682 135.0059 C 90.56625 135.1771 90.65097 135.3804 90.65097 135.6158 L 90.65097 140.9932 C 90.65097 141.2322 90.56625 141.4364 90.39682 141.6059 C 90.22739 141.7753 90.02316 141.86 89.78418 141.86 L 86.99117 141.86 C 86.7486 141.86 86.5435 141.7753 86.37585 141.6059 C 86.20821 141.4364 86.12439 141.2322 86.12439 140.9932 Z M 89.76277 140.9611 L 89.76277 135.6587 L 87.02328 135.6587 L 87.02328 140.9611 L 89.76277 140.9611 Z" fill-rule="evenodd" fill="#CFFF04" fill-opacity="1" stroke="#CFFF04" stroke-opacity="1" stroke-width="0.1" stroke-linecap="round" stroke-linejoin="round"/>
</g>
<path d="M 261.1429 241.6261 C 264.7092 241.6261 267.6061 238.7292 267.6061 235.1629 L 267.6061 206.5201 C 267.6061 202.9539 264.7092 200.0569 261.1429 200.0569 L 215.4155 200.0569 C 211.8492 200.0569 208.9523 202.9539 208.9523 206.5201 L 208.9523 235.1629 C 208.9523 238.7292 211.8492 241.6261 215.4155 241.6261 L 261.1429 241.6261 Z" fill-rule="evenodd" fill="none" fill-opacity="1" stroke="#CFFF04" stroke-opacity="1" stroke-width="1.763889" stroke-linecap="round" stroke-linejoin="round"/>
<path d="M 247.6828 235.0974 C 249.8551 235.0974 251.6195 233.1104 251.6195 230.6644 L 251.6196 211.0188 C 251.6196 208.5728 249.8551 206.5858 247.6828 206.5858 L 219.8304 206.5858 C 217.6582 206.5858 215.8937 208.5728 215.8937 211.0188 L 215.8937 230.6644 C 215.8937 233.1104 217.6582 235.0974 219.8304 235.0974 L 247.6828 235.0974 Z" fill-rule="evenodd" fill="none" fill-opacity="1" stroke="#CFFF04" stroke-opacity="1" stroke-width="1.763889" stroke-linecap="round" stroke-linejoin="round"/>
<g>
<path d="M 264.3019 214.3861 C 264.3019 216.6642 262.4514 218.5146 260.1734 218.5146 C 257.8954 218.5146 256.0449 216.6642 256.0449 214.3861 C 256.0449 212.1081 257.8954 210.2576 260.1734 210.2576 C 262.4514 210.2576 264.3019 212.1081 264.3019 214.3861 Z" fill-rule="evenodd" fill="none" fill-opacity="1" stroke="#CFFF04" stroke-opacity="1" stroke-width="1.763889" stroke-linecap="round" stroke-linejoin="round"/>
<path d="M 264.3019 227.297 C 264.3019 229.575 262.4514 231.4255 260.1734 231.4255 C 257.8954 231.4255 256.045 229.575 256.045 227.297 C 256.045 225.019 257.8954 223.1685 260.1734 223.1685 C 262.4514 223.1685 264.3019 225.019 264.3019 227.297 Z" fill-rule="evenodd" fill="none" fill-opacity="1" stroke="#CFFF04" stroke-opacity="1" stroke-width="1.763889" stroke-linecap="round" stroke-linejoin="round"/>
</g>
<path d="M 235.6315 224.9948 L 235.6316 216.6882 L 241.7946 216.6882 L 241.7945 224.9183 M 247.9493 216.6882 L 247.9492 224.9948 L 241.7863 224.9948 L 241.7863 216.7648 M 222.0951 224.9948 L 222.0951 216.6882 L 225.4951 216.6882 L 225.4951 224.9183 M 228.8907 216.6882 L 228.8906 224.9948 L 225.4906 224.9948 L 225.4906 216.7648 M 215.3237 224.9949 L 215.3237 216.6883 L 218.7237 216.6883 L 218.7237 224.9183 M 222.1192 216.6882 L 222.1192 224.9948 L 218.7192 224.9948 L 218.7192 216.7648 M 228.8665 224.9948 L 228.8665 216.6882 L 232.2666 216.6882 L 232.2665 224.9182 M 235.6621 216.6881 L 235.662 224.9947 L 232.262 224.9947 L 232.262 216.7647 M 247.9188 224.9949 L 247.9188 216.6883 L 251.3188 216.6883 L 251.3188 224.9183" fill-rule="evenodd" fill="none" fill-opacity="1" stroke="#CFFF04" stroke-opacity="1" stroke-width="0.8819444" stroke-linecap="round" stroke-linejoin="round"/>
<path d="M 160.3817 201.3185 L 157.9043 198.9441 C 157.8076 198.8515 157.682 198.8058 157.5276 198.8069 C 157.3732 198.8079 157.248 198.8572 157.152 198.9545 L 156.3612 199.7559 C 156.2447 199.8739 156.182 199.9811 156.173 200.0773 C 156.164 200.1733 156.1855 200.3017 156.2375 200.4624 C 156.2895 200.623 156.2655 200.7541 156.1653 200.8556 C 156.0856 200.9363 155.9965 200.9769 155.8981 200.9772 C 155.7996 200.9775 155.7168 200.9455 155.6495 200.8811 C 155.515 200.7522 155.4424 200.5182 155.4313 200.1793 C 155.4203 199.8403 155.5282 199.5559 155.755 199.3261 L 156.6347 198.4346 C 156.8616 198.2047 157.1558 198.0878 157.5174 198.0839 C 157.8791 198.0799 158.186 198.1989 158.4381 198.4405 L 160.9281 200.8269 C 161.1256 201.0162 161.2266 201.2619 161.2308 201.5642 C 161.2351 201.8665 161.135 202.1212 160.9307 202.3283 C 160.7161 202.5457 160.471 202.6573 160.1955 202.6631 C 160.1992 202.9327 160.0949 203.1753 159.8824 203.3906 C 159.6637 203.6122 159.4005 203.7235 159.0927 203.7247 C 158.7849 203.7259 158.5344 203.6339 158.3411 203.4486 L 157.323 202.4728 C 157.1045 202.2634 156.9926 202.006 156.9872 201.7006 C 156.9818 201.3953 157.0865 201.1339 157.301 200.9165 L 157.8037 200.4071 C 157.9876 200.2208 158.1741 200.2181 158.3633 200.3994 L 159.8667 201.8404 C 159.9402 201.9109 160.0277 201.9454 160.1293 201.944 C 160.2308 201.9426 160.3174 201.9056 160.3889 201.8332 C 160.4584 201.7628 160.4929 201.6771 160.4925 201.576 C 160.4921 201.4748 160.4552 201.389 160.3817 201.3185 Z M 159.3517 202.3622 L 158.0942 201.1568 L 157.8612 201.3929 C 157.6691 201.5876 157.6719 201.7795 157.8694 201.9688 L 158.8307 202.8902 C 158.9042 202.9607 158.9923 202.9948 159.0948 202.9923 C 159.1974 202.9899 159.2834 202.9534 159.3529 202.883 C 159.4245 202.8105 159.4605 202.7233 159.4611 202.6212 C 159.4618 202.519 159.4253 202.4326 159.3517 202.3622 Z M 161.5882 200.0959 L 160.7498 199.2924 C 160.6762 199.2219 160.6387 199.1366 160.6373 199.0365 C 160.6359 198.9365 160.6709 198.8501 160.7425 198.7776 C 160.814 198.7052 160.9005 198.6683 161.002 198.6669 C 161.1036 198.6655 161.1912 198.7 161.2647 198.7705 L 162.1094 199.5801 C 162.1808 199.6486 162.2673 199.6811 162.3689 199.6776 C 162.4703 199.6742 162.5579 199.6352 162.6315 199.5607 L 163.1525 199.0326 C 163.2241 198.9601 163.2602 198.8729 163.2608 198.7707 C 163.2614 198.6686 163.225 198.5822 163.1514 198.5117 L 160.0279 195.5182 C 159.9544 195.4476 159.9164 195.3628 159.9139 195.2638 C 159.9115 195.1648 159.945 195.0801 160.0145 195.0096 C 160.084 194.9393 160.1736 194.9043 160.2835 194.9048 C 160.3934 194.9053 160.4841 194.9398 160.5555 195.0084 L 163.6664 197.9899 C 163.8891 198.2034 163.9995 198.4643 163.9977 198.7729 C 163.9958 199.0813 163.8927 199.3391 163.6884 199.5462 L 163.1673 200.0742 C 162.9527 200.2916 162.6905 200.4019 162.3807 200.4052 C 162.0709 200.4084 161.8067 200.3054 161.5882 200.0959 Z M 161.7786 192.7621 L 162.0482 192.4887 C 162.1198 192.4162 162.2064 192.3792 162.3079 192.3778 C 162.4094 192.3764 162.497 192.4111 162.5705 192.4816 L 162.7974 192.699 C 162.8709 192.7695 162.9095 192.8558 162.913 192.9579 C 162.9165 193.06 162.8825 193.1473 162.811 193.2198 L 162.5352 193.4992 C 162.4616 193.5738 162.3725 193.6103 162.2678 193.6086 C 162.1631 193.607 162.0782 193.5729 162.0129 193.5064 L 161.7858 193.2767 C 161.7123 193.2062 161.6748 193.1209 161.6734 193.0209 C 161.672 192.9208 161.707 192.8345 161.7786 192.7621 Z M 167.2426 195.9319 L 165.6733 197.5224 C 165.6017 197.5948 165.5152 197.6317 165.4136 197.6331 C 165.3121 197.6346 165.2245 197.5999 165.151 197.5295 C 165.0796 197.461 165.0426 197.3763 165.0402 197.2751 C 165.0377 197.1741 165.0722 197.0873 165.1438 197.0148 L 165.671 196.4804 L 163.6947 194.5865 L 163.1736 195.1145 C 163.1021 195.187 163.015 195.2234 162.9124 195.2238 C 162.8098 195.2242 162.7229 195.1902 162.6514 195.1217 C 162.5779 195.0512 162.5393 194.965 162.5358 194.8629 C 162.5323 194.7608 162.5664 194.6734 162.6378 194.601 L 163.4225 193.8058 C 163.494 193.7333 163.5816 193.6974 163.6853 193.698 C 163.7889 193.6987 163.8775 193.7342 163.9511 193.8047 L 166.1921 195.9524 L 166.707 195.4307 C 166.7786 195.3582 166.8661 195.3203 166.9697 195.3167 C 167.0732 195.3133 167.1618 195.3468 167.2354 195.4173 C 167.3089 195.4877 167.3459 195.5735 167.3463 195.6746 C 167.3467 195.7758 167.3121 195.8615 167.2426 195.9319 Z M 170.2822 192.864 L 168.7251 194.442 C 168.6536 194.5144 168.566 194.5504 168.4624 194.5497 C 168.3587 194.5491 168.2701 194.5136 168.1966 194.4431 C 168.1252 194.3746 168.0882 194.2899 168.0858 194.1888 C 168.0833 194.0877 168.1178 194.001 168.1893 193.9285 L 168.7043 193.4066 L 165.5808 190.4129 L 165.0597 190.941 C 164.9882 191.0135 164.9016 191.0504 164.8001 191.0518 C 164.6985 191.0532 164.611 191.0186 164.5374 190.9481 C 164.4639 190.8777 164.4265 190.7924 164.425 190.6923 C 164.4236 190.5922 164.4586 190.5059 164.5302 190.4335 L 165.3148 189.6383 C 165.3843 189.5679 165.4709 189.532 165.5746 189.5305 C 165.6782 189.5291 165.7657 189.5627 165.8371 189.6312 L 169.2253 192.8785 L 169.7464 192.3505 C 169.8159 192.2801 169.9025 192.2441 170.0061 192.2427 C 170.1097 192.2412 170.1973 192.2749 170.2687 192.3433 C 170.3422 192.4138 170.3807 192.5 170.3842 192.6021 C 170.3878 192.7042 170.3538 192.7915 170.2822 192.864 Z M 173.3156 189.7901 L 171.7585 191.3681 C 171.687 191.4406 171.5994 191.4765 171.4958 191.4759 C 171.3921 191.4753 171.3035 191.4397 171.2299 191.3692 C 171.1585 191.3008 171.1216 191.216 171.1191 191.1149 C 171.1166 191.0139 171.1512 190.927 171.2227 190.8545 L 171.7376 190.3328 L 168.6141 187.3391 L 168.0931 187.8671 C 168.0215 187.9395 167.935 187.9765 167.8335 187.9779 C 167.7319 187.9793 167.6444 187.9447 167.5708 187.8743 C 167.4973 187.8038 167.4598 187.7185 167.4584 187.6184 C 167.4569 187.5183 167.492 187.4321 167.5636 187.3596 L 168.3482 186.5645 C 168.4177 186.4941 168.5043 186.4582 168.6079 186.4567 C 168.7115 186.4553 168.799 186.4888 168.8705 186.5573 L 172.2588 189.8047 L 172.7798 189.2766 C 172.8493 189.2062 172.9359 189.1703 173.0394 189.1689 C 173.143 189.1674 173.2306 189.201 173.302 189.2694 C 173.3755 189.3399 173.4141 189.4262 173.4177 189.5283 C 173.4211 189.6304 173.3872 189.7176 173.3156 189.7901 Z M 174.8184 184.2338 L 175.4582 184.8471 C 175.5296 184.9155 175.5661 185.0008 175.5676 185.1029 C 175.569 185.205 175.5349 185.2913 175.4654 185.3617 L 173.6447 187.2068 L 173.7992 187.3548 C 173.8895 187.4414 174.004 187.4766 174.1426 187.4604 L 174.4221 187.432 C 174.5689 187.4117 174.6791 187.3642 174.7527 187.2896 L 176.0769 185.9477 C 176.1464 185.8773 176.2324 185.8409 176.335 185.8385 C 176.4375 185.8361 176.5256 185.8701 176.5992 185.9406 C 176.6706 186.0091 176.7065 186.0949 176.7069 186.198 C 176.7073 186.3012 176.6738 186.387 176.6064 186.4553 L 175.2485 187.8314 C 175.1586 187.9224 175.0447 187.9996 174.9067 188.0628 C 174.7686 188.1259 174.6553 188.1612 174.5662 188.1685 L 174.1283 188.2021 C 173.9979 188.2181 173.8562 188.2003 173.7031 188.1483 C 173.5501 188.0963 173.4294 188.0279 173.3412 187.9433 L 172.1276 186.7803 C 172.0582 186.7139 171.9908 186.5978 171.9253 186.4322 C 171.8597 186.2667 171.8342 186.1123 171.8488 185.9691 L 171.89 185.5855 C 171.9133 185.3299 172.0108 185.115 172.1825 184.9411 L 172.9059 184.208 C 173.0877 184.0237 173.3371 183.9243 173.6541 183.9097 L 174.0363 183.8952 C 174.3034 183.8773 174.5641 183.9901 174.8184 184.2338 Z M 172.7052 186.2943 L 173.115 186.687 L 174.6783 185.1028 L 174.3095 184.7494 C 174.2107 184.6547 174.1055 184.6123 173.9937 184.622 L 173.7079 184.6443 C 173.5652 184.6606 173.4631 184.6997 173.4019 184.7619 L 172.755 185.4173 C 172.6754 185.498 172.6312 185.5988 172.6225 185.7194 L 172.6015 185.9954 C 172.5866 186.1141 172.6212 186.2137 172.7052 186.2943 Z M 174.9828 182.1032 L 176.163 180.9073 C 176.3469 180.7209 176.5655 180.6102 176.8189 180.575 C 177.0724 180.5399 177.2527 180.5737 177.3598 180.6764 C 177.4355 180.7489 177.4714 180.8347 177.4677 180.9338 C 177.4638 181.0329 177.4302 181.1147 177.3669 181.1788 C 177.2851 181.2616 177.1728 181.301 177.0298 181.2968 C 176.8867 181.2926 176.7783 181.3278 176.7047 181.4024 L 175.54 182.5828 C 175.4256 182.6987 175.4176 182.804 175.5164 182.8987 C 175.5857 182.9651 175.6761 182.9772 175.7874 182.9348 L 177.7816 182.1444 C 177.9836 182.064 178.1989 182.0457 178.4275 182.0896 C 178.6561 182.1334 178.8556 182.2369 179.0258 182.4001 C 179.2527 182.6176 179.3669 182.881 179.3681 183.1905 C 179.3694 183.5 179.2709 183.7551 179.0727 183.956 L 178.0305 185.0121 C 177.8507 185.1943 177.628 185.3103 177.3623 185.3599 C 177.0967 185.4095 176.9112 185.384 176.8062 185.2833 C 176.7369 185.2168 176.7004 185.1325 176.697 185.0304 C 176.6934 184.9284 176.7315 184.8369 176.8112 184.7561 C 176.8766 184.6899 176.9845 184.6552 177.1347 184.6521 C 177.2849 184.649 177.4305 184.576 177.5715 184.4331 L 178.5309 183.4609 C 178.6065 183.3842 178.6399 183.2914 178.6312 183.1823 C 178.6224 183.0731 178.579 182.9812 178.5013 182.9067 C 178.3815 182.7919 178.2382 182.7673 178.0712 182.833 L 176.0489 183.6207 C 175.8552 183.6968 175.6648 183.7158 175.4777 183.6775 C 175.2906 183.6392 175.1371 183.5627 175.0174 183.4479 C 174.8283 183.2666 174.7282 183.0449 174.7173 182.7825 C 174.7064 182.5202 174.7948 182.2937 174.9828 182.1032 Z M 184.3322 180.2173 L 180.4791 184.1218 L 179.9434 183.6082 L 183.7963 179.7037 L 184.3322 180.2173 Z M 185.7126 177.2273 L 184.6122 178.3424 C 184.4181 178.5391 184.1926 178.6494 183.936 178.6734 L 182.9887 178.7508 C 182.6927 178.7814 182.4282 178.6849 182.1949 178.4614 L 181.5046 177.7999 C 181.2716 177.5926 181.1662 177.3141 181.1882 176.9645 L 181.2385 176.1243 C 181.2617 175.8605 181.3561 175.6447 181.5216 175.477 L 182.6772 174.3059 C 182.7487 174.2334 182.8352 174.1965 182.9367 174.1951 C 183.0383 174.1937 183.1259 174.2283 183.1994 174.2988 C 183.275 174.3713 183.3131 174.457 183.3134 174.5561 C 183.3138 174.6552 183.2782 174.741 183.2067 174.8134 L 182.1001 175.9348 C 182.0306 176.0052 181.9926 176.0997 181.986 176.2183 L 181.9346 176.985 C 181.926 177.1097 181.9711 177.2193 182.0699 177.314 L 182.716 177.9333 C 182.7854 177.9998 182.8708 178.0293 182.9723 178.0217 L 183.823 177.9426 C 183.9328 177.935 184.0346 177.8836 184.1285 177.7883 L 185.1831 176.7198 C 185.2525 176.6494 185.3385 176.6129 185.4411 176.6105 C 185.5437 176.6081 185.6319 176.6422 185.7054 176.7126 C 185.7789 176.7831 185.8163 176.8684 185.8177 176.9684 C 185.8192 177.0685 185.7842 177.1547 185.7126 177.2273 Z M 186.9107 171.8989 L 188.0296 172.9713 C 188.2671 173.1989 188.3779 173.5196 188.362 173.9335 C 188.3461 174.3474 188.2227 174.6712 187.9918 174.9052 L 187.3878 175.5172 C 187.1529 175.7553 186.8256 175.885 186.4062 175.9061 C 185.9868 175.9272 185.6615 175.8269 185.4303 175.6053 L 184.3114 174.5329 C 184.0802 174.3114 183.967 173.9964 183.9715 173.5878 C 183.9761 173.1792 184.1011 172.8506 184.3463 172.6021 L 184.9501 171.9901 C 185.1768 171.7522 185.4999 171.6195 185.9192 171.5923 C 186.3386 171.5651 186.6691 171.6673 186.9107 171.8989 Z M 184.8546 174.026 L 185.9263 175.0532 C 186.0229 175.1458 186.1333 175.1851 186.2575 175.1712 L 186.6208 175.1386 C 186.7015 175.1313 186.7807 175.0884 186.8583 175.0097 L 187.4561 174.404 C 187.544 174.3149 187.591 174.203 187.5974 174.0681 L 187.6119 173.7737 C 187.6248 173.6612 187.586 173.5616 187.4957 173.475 L 186.4242 172.4479 C 186.3191 172.3472 186.2097 172.3048 186.096 172.3206 L 185.7669 172.3619 C 185.6531 172.3737 185.5553 172.4211 185.4735 172.5038 L 184.9402 173.0443 C 184.8237 173.1624 184.7621 173.2807 184.7555 173.3992 L 184.7353 173.7243 C 184.7266 173.8409 184.7663 173.9415 184.8546 174.026 Z M 189.1083 173.2642 L 186.5963 170.8566 C 186.5228 170.7861 186.4852 170.7008 186.4838 170.6007 C 186.4824 170.5006 186.5174 170.4143 186.589 170.3419 C 186.7218 170.2073 186.8727 170.1868 187.042 170.2805 C 187.0464 170.0027 187.1364 169.7746 187.3122 169.5965 C 187.5186 169.3874 187.7786 169.3022 188.0921 169.3407 C 188.0749 169.0019 188.1643 168.733 188.3605 168.5342 C 188.5199 168.3727 188.7166 168.2883 188.9507 168.2809 C 189.1849 168.2737 189.3964 168.3525 189.5853 168.5174 L 191.821 170.5151 C 191.8924 170.5836 191.9289 170.6689 191.9303 170.771 C 191.9318 170.8731 191.8978 170.9594 191.8283 171.0298 C 191.7568 171.1023 191.6691 171.1392 191.5655 171.1407 C 191.4619 171.1421 191.3734 171.1096 191.2999 171.0432 L 189.1615 169.1146 C 189.044 169.01 188.9536 168.9898 188.8901 169.054 C 188.8555 169.0892 188.8354 169.1405 188.8302 169.208 L 188.7884 169.7723 L 190.7236 171.6272 C 190.7951 171.6956 190.831 171.7794 190.8313 171.8784 C 190.8317 171.9775 190.7962 172.0633 190.7246 172.1358 C 190.6551 172.2062 190.5691 172.2426 190.4665 172.245 C 190.3639 172.2475 190.276 172.2134 190.2024 172.1429 L 188.097 170.125 C 188.0066 170.0384 187.9237 170.0334 187.848 170.1101 C 187.8112 170.1474 187.7912 170.1946 187.7878 170.2519 L 187.7384 170.9358 L 189.6232 172.7423 C 189.6947 172.8108 189.7321 172.895 189.7356 172.9951 C 189.7391 173.0951 189.7061 173.1803 189.6366 173.2508 C 189.5651 173.3232 189.477 173.3607 189.3723 173.3632 C 189.2677 173.3656 189.1797 173.3326 189.1083 173.2642 Z M 161.7793 206.7464 C 160.4688 207.8619 159.1824 208.4914 158.0657 208.3215 C 157.2354 208.1951 156.4047 207.3313 156.3778 207.309 C 156.3214 207.2623 156.0038 207.16 155.5901 206.7464 C 155.568 206.7243 155.0351 206.073 155.0274 206.0714 C 154.7014 206.0056 154.7232 205.9888 154.7209 205.9904 L 126.6707 234.1991 C 125.9152 234.9782 125.9173 234.3585 125.9191 234.9102 C 125.9196 235.0853 126.4516 235.0571 125.9191 235.6978 C 125.3798 236.3466 125.4403 236.1098 125.1314 236.3728 C 125.0893 236.4086 122.8642 238.455 122.8432 238.4729 C 117.8525 242.721 118.175 242.5498 118.0345 242.3801 L 116.6777 241.0365 C 116.518 240.9045 117.0761 240.356 119.1297 238.0229 C 119.1521 237.9973 121.5833 235.1237 121.6053 235.0977 C 122.3705 234.1993 122.8081 233.8394 122.9182 233.7102 C 122.9293 233.6972 123.3101 233.0591 123.5184 232.9601 C 124.0739 232.6963 124.0679 233.3084 124.4229 232.9643 L 152.9361 204.3178 C 152.9374 204.3158 152.938 204.2876 152.8893 204.0463 C 152.8771 203.9859 151.265 202.959 150.8637 201.2337 C 150.7064 200.5573 150.3206 198.9793 154.1365 195.2802 L 184.8578 164.5663 C 186.554 162.8173 188.6255 160.8375 190.7376 161.5567 C 192.076 162.0125 192.5938 162.6249 195.8015 165.8319 C 197.2664 167.2964 198.6832 168.9606 196.3642 172.0197 C 195.7062 172.8876 192.7028 175.9051 179.1467 189.4581 C 166.3611 202.2407 162.9404 205.758 161.7793 206.7464 Z" fill-rule="evenodd" fill="#CFFF04" fill-opacity="1" stroke="#CFFF04" stroke-opacity="1" stroke-width="0.1" stroke-linecap="round" stroke-linejoin="round"/>
</g>
</g>
</svg>